<svg xmlns="http://www.w3.org/2000/svg" id="Layer_1" viewBox="0 0 100 100"><style>.st0{fill:#010101;}</style><g id="XMLID_2_"><path id="XMLID_3_" d="M33.2 92.6C70 91.6 90 61 90 34.6V32c4-3 7.4-6.5 10.2-10.6-3.7 1.6-7.6 2.7-11.8 3.2 4.2-2.5 7.5-6.5 9-11.3-4 2.3-8.4 4-13 5-4-4-9.2-6.4-15-6.4-11.5 0-20.7 9-20.7 20.3 0 1.6.2 3.2.5 4.6-17-1-32-9-42.2-21.5-1.8 3-2.8 6.5-2.8 10.3 0 7 3.6 13.3 9 17-3.3 0-6.4-1-9.2-2.6v.3c0 10 7 18 16.5 20-1.7.5-3.5.7-5.4.7-1.2 0-2.5 0-3.8-.4 2.6 8 10.2 14 19.2 14.2-7 5.5-16 8.7-25.5 8.7-1.8 0-3.4 0-5-.3 8.8 5.6 19 9 30.3 9h3" class="st0"/></g></svg>