<svg xmlns="http://www.w3.org/2000/svg" id="Layer_1" viewBox="0 0 100 100"><style>.st0{fill-rule:evenodd;clip-rule:evenodd;fill:#000;} .st1{fill:#000;}</style><g id="XMLID_2_"><path id="XMLID_24_" d="M50 0C22.4 0 0 23 0 51.3 0 74 14.3 93.3 34.2 100c2.5.4 3.4-1.2 3.4-2.6V88c-14 3-17-6-17-6-2.2-6-5.5-7.6-5.5-7.6-4.4-3.2.4-3 .4-3 5 .3 7.7 5.2 7.7 5.2 4.6 7.8 11.8 5.6 14.7 4.3.4-3.4 1.7-5.7 3.2-7-11.2-1.3-23-5.7-23-25.3 0-5.6 2-10.2 5.3-13.8-.5-1.4-2.2-6.6.5-13.7 0 0 4.2-1.4 13.8 5.3 4-1 8.3-1.7 12.5-1.7 4.3 0 8.6.5 12.6 1.6 9.5-6.6 13.7-5.3 13.7-5.3 2.7 7 1 12.3.5 13.6 3.2 3.5 5 8 5 13.7 0 19.7-11.6 24-22.7 25.3 2 1.6 3.5 4.7 3.5 9.5v14c0 1.5.8 3 3.3 2.6 20-6.7 34.2-26 34.2-48.5C100 23 77.6 0 50 0z" class="st0"/><path id="XMLID_21_" d="M19 73.6c-.2.3-.6.3-1 .2-.4-.2-.6-.5-.4-.8 0-.3.5-.3 1-.2.3.2.5.6.3.8zm-.7-.5" class="st1"/><path id="XMLID_18_" d="M21 76c-.2 0-.7 0-1-.3-.3-.4-.4-.8 0-1 0-.3.6-.2 1 0 0 .5.2 1 0 1.2zm-.5-.6" class="st1"/><path id="XMLID_15_" d="M23 79c-.4 0-1 0-1.2-.5-.3-.5-.3-1 0-1.2.3-.2.8 0 1 .4.4.4.4 1 0 1.2zm0 0" class="st1"/><path id="XMLID_12_" d="M25.6 81.7c-.3.3-1 .2-1.3-.2-.4-.4-.6-1-.3-1.3.3-.3 1-.2 1.3.2.5.4.6 1 .3 1.3zm0 0" class="st1"/><path id="XMLID_9_" d="M29.4 83.4c0 .4-.7.6-1.2.4-.6-.2-1-.6-.8-1 0-.5.7-.7 1.3-.5.4.2.8.7.7 1zm0 0" class="st1"/><path id="XMLID_6_" d="M33.5 83.7c0 .4-.5.8-1 .8-.7 0-1.2-.3-1.2-.7 0-.4.5-.8 1-.8.7 0 1.2.3 1.2.7zm0 0" class="st1"/><path id="XMLID_3_" d="M37.3 83c0 .4-.3.8-1 1-.5 0-1-.2-1-.7-.2-.4.2-.8.8-1 .7 0 1.2.3 1.3.7zm0 0" class="st1"/></g></svg>