<svg width="600" height="250" viewBox="0 0 600 250" fill="none" xmlns="http://www.w3.org/2000/svg">
	<path d="M97 70h11c6-1 13 0 20 3 7 5 13 12 15 21 2 5 2 5 6 3h3V60H48v7h5a12 12 0 0 1 9 4c4 7 5 14 5 51 0 40-1 49-5 54a10 10 0 0 1-8 5c-6 1-6 1-6 3v3h66a6 6 0 0 0 0-6l-5-1-5-1a17 17 0 0 1-7-15l-2-28v-8h4l14 2a18 18 0 0 1 9 12l1 3h6v-42h-6l-1 4a17 17 0 0 1-9 13H95v-10l1-38 1-2Zm453 77c-5-7-12-13-20-15-7-2-13-5-18-10a10 10 0 0 1-2-8l3-9a12 12 0 0 1 12-3 24 24 0 0 1 17 18c1 5 1 5 4 4l2-1V99l-1-1c-10-3-20-4-30-4-9 0-17 4-23 10a27 27 0 0 0-9 21c0 6 3 11 7 16 5 4 10 8 16 9 15 6 20 10 20 17a13 13 0 0 1-10 13h-10a30 30 0 0 1-18-21l-2-3h-1l-3 1h-1v27h2l20 5h10l12-1a30 30 0 0 0 25-29c0-4 0-8-2-12Zm-91-50a45 45 0 0 0-37 1 42 42 0 0 0-22 26c-2 7-3 13-3 20l1 10a43 43 0 0 0 35 35h17c6-1 11-3 16-6l11-10a5 5 0 0 0-3-3l-3 2c-5 3-10 5-16 4a26 26 0 0 1-21-8l-5-6c-3-6-4-13-4-20v-4h53v-7a39 39 0 0 0-19-34Zm-27 34h-7v-6c2-15 8-23 14-23 7 0 10 8 11 24v4h-6l-12 1ZM292 94c-3 0-6 0-9 2-7 3-12 8-15 15l-2 2V94l-38 8-1 2 1 2 4 1a7 7 0 0 1 5 3c2 3 3 8 3 32 0 11 0 22-2 33a8 8 0 0 1-6 6l-3 1h-2v5h54v-6l-9-1a10 10 0 0 1-5-10c-1-5-2-22-1-34l1-14c3-3 7-4 11-4s8 1 11 3l4 1 9-24a11 11 0 0 0-10-4Zm-65 41a44 44 0 0 0-20-35 50 50 0 0 0-45-1c-10 5-18 14-21 25-4 12-4 25 0 37 2 7 5 13 10 18 6 6 14 9 22 11h17l6-2a43 43 0 0 0 30-34c1-6 2-13 1-19Zm-40 48c-10 3-17-7-20-26v-31c2-16 7-24 15-24a10 10 0 0 1 8 3c7 7 10 20 10 39 1 11-1 22-5 32l-8 7Zm174-87h-8c-5 0-11 1-15 3l-3 1V58a1315 1315 0 0 0-39 10c0 2 0 2 4 2l4 2c2 2 3 4 3 7 1 7 2 14 1 22v85h3l18 4h22a44 44 0 0 0 36-28 67 67 0 0 0 3-35 37 37 0 0 0-29-31Zm-25 85-1-60v-14h8l6 1a29 29 0 0 1 13 22v21c-1 11-5 20-11 28l-7 4h-6c-2 0-2-1-2-2Z" fill="#000" />
</svg>
