<svg width="600" height="250" fill="none" xmlns="http://www.w3.org/2000/svg">
	<path d="M116 52c-40.308 0-73 32.364-73 72.282 0 31.937 20.914 59.031 49.926 68.59 3.644.669 4.824-1.572 4.824-3.475V175.94c-20.306 4.373-24.534-8.529-24.534-8.529-3.322-8.355-8.11-10.578-8.11-10.578-6.624-4.487.506-4.391.506-4.391 7.33.506 11.187 7.451 11.187 7.451 6.51 11.047 17.076 7.855 21.243 6.006.65-4.668 2.543-7.861 4.636-9.662-16.213-1.837-33.258-8.035-33.258-35.725 0-7.897 2.853-14.342 7.519-19.402-.754-1.825-3.255-9.18.712-19.13 0 0 6.132-1.94 20.08 7.408 5.823-1.602 12.064-2.403 18.269-2.434 6.205.03 12.453.832 18.286 2.434 13.937-9.349 20.057-7.409 20.057-7.409 3.973 9.957 1.472 17.312.718 19.131 4.684 5.06 7.513 11.511 7.513 19.402 0 27.762-17.076 33.876-33.331 35.665 2.616 2.241 5.007 6.638 5.007 13.384v19.836c0 1.921 1.168 4.18 4.873 3.469C168.11 183.295 189 156.207 189 124.282 189 84.364 156.314 52 116 52ZM275.059 103.297c-.381-3.83-2.016-6.806-4.905-8.927-2.89-2.12-6.811-3.181-11.765-3.181-3.366 0-6.207.475-8.525 1.425-2.318.917-4.096 2.2-5.335 3.846-1.206 1.646-1.81 3.513-1.81 5.603-.063 1.741.302 3.26 1.096 4.558.825 1.298 1.953 2.422 3.381 3.371 1.429.918 3.08 1.726 4.954 2.422a51.261 51.261 0 0 0 6.001 1.709l8.764 2.09c4.255.949 8.16 2.216 11.717 3.798 3.556 1.583 6.636 3.53 9.24 5.841a24.29 24.29 0 0 1 6.049 8.167c1.46 3.134 2.206 6.727 2.238 10.779-.032 5.951-1.556 11.111-4.572 15.479-2.985 4.337-7.303 7.708-12.955 10.114-5.621 2.374-12.4 3.562-20.338 3.562-7.875 0-14.733-1.203-20.576-3.609-5.811-2.406-10.351-5.967-13.622-10.684-3.238-4.748-4.937-10.62-5.096-17.616h19.957c.222 3.26 1.159 5.983 2.81 8.167 1.683 2.152 3.921 3.783 6.715 4.891 2.826 1.076 6.018 1.614 9.574 1.614 3.493 0 6.525-.506 9.097-1.519 2.604-1.013 4.62-2.422 6.049-4.226 1.429-1.805 2.143-3.878 2.143-6.221 0-2.184-.651-4.02-1.953-5.508-1.27-1.488-3.143-2.754-5.62-3.799-2.445-1.044-5.445-1.994-9.002-2.849l-10.621-2.659c-8.224-1.994-14.717-5.112-19.48-9.354-4.763-4.242-7.129-9.955-7.097-17.141-.032-5.888 1.54-11.032 4.715-15.432 3.207-4.4 7.605-7.835 13.194-10.304C245.069 75.234 251.42 74 258.532 74c7.24 0 13.559 1.235 18.957 3.704 5.429 2.469 9.652 5.904 12.669 10.304 3.016 4.4 4.572 9.496 4.668 15.289h-19.767ZM348.563 99.641v15.195h-44.057V99.641h44.057Zm-34.055-17.474h20.29v67.996c0 1.868.286 3.324.858 4.369.571 1.013 1.365 1.725 2.381 2.137 1.048.411 2.255.617 3.62.617.952 0 1.905-.079 2.858-.238.952-.19 1.683-.332 2.191-.427l3.191 15.052c-1.016.317-2.445.681-4.287 1.092-1.842.444-4.08.713-6.716.808-4.89.19-9.176-.459-12.859-1.947-3.652-1.488-6.494-3.799-8.526-6.933s-3.032-7.091-3.001-11.871V82.167ZM382.642 173.953c-4.668 0-8.828-.808-12.479-2.422-3.652-1.646-6.541-4.068-8.669-7.265-2.095-3.229-3.143-7.249-3.143-12.061 0-4.052.746-7.455 2.238-10.209 1.493-2.754 3.525-4.97 6.097-6.647 2.572-1.678 5.493-2.944 8.764-3.799 3.302-.855 6.763-1.456 10.383-1.805 4.255-.443 7.684-.854 10.288-1.234 2.603-.412 4.493-1.013 5.668-1.804 1.174-.792 1.762-1.963 1.762-3.514v-.285c0-3.007-.953-5.334-2.858-6.98-1.873-1.646-4.54-2.469-8.002-2.469-3.651 0-6.556.807-8.716 2.421-2.159 1.583-3.588 3.577-4.286 5.983l-18.766-1.519c.952-4.432 2.826-8.262 5.62-11.491 2.794-3.261 6.398-5.762 10.812-7.503 4.445-1.772 9.589-2.659 15.432-2.659 4.064 0 7.954.475 11.669 1.425 3.747.95 7.065 2.422 9.954 4.416a21.476 21.476 0 0 1 6.907 7.692c1.682 3.102 2.524 6.822 2.524 11.159v49.192h-19.242v-10.113h-.572a20.59 20.59 0 0 1-4.715 6.03c-1.969 1.709-4.334 3.055-7.097 4.036-2.762.95-5.953 1.425-9.573 1.425Zm5.81-13.961c2.985 0 5.621-.585 7.907-1.756 2.286-1.203 4.08-2.818 5.382-4.844 1.302-2.026 1.953-4.321 1.953-6.885v-7.74c-.635.412-1.508.792-2.62 1.14a48.18 48.18 0 0 1-3.667.902c-1.366.253-2.731.491-4.096.712-1.366.19-2.604.364-3.715.523-2.382.348-4.462.902-6.24 1.662-1.778.759-3.159 1.788-4.144 3.086-.984 1.266-1.476 2.849-1.476 4.748 0 2.754 1 4.859 3.001 6.316 2.032 1.424 4.604 2.136 7.715 2.136ZM439.582 172.575V99.641h19.671v12.726h.762c1.334-4.527 3.572-7.946 6.716-10.257 3.143-2.342 6.763-3.514 10.859-3.514 1.016 0 2.112.064 3.287.19 1.175.127 2.207.301 3.096.523v17.948c-.953-.285-2.271-.538-3.954-.759-1.682-.222-3.222-.333-4.62-.333-2.984 0-5.652.649-8.001 1.947a14.356 14.356 0 0 0-5.525 5.318c-1.334 2.279-2.001 4.907-2.001 7.882v41.263h-20.29ZM555.333 120.439l-18.575 1.139a9.575 9.575 0 0 0-2.048-4.273c-1.048-1.298-2.429-2.327-4.144-3.087-1.683-.791-3.699-1.187-6.049-1.187-3.144 0-5.795.665-7.954 1.995-2.159 1.298-3.239 3.039-3.239 5.223 0 1.741.699 3.213 2.096 4.416 1.397 1.203 3.794 2.168 7.192 2.896l13.241 2.659c7.112 1.456 12.415 3.799 15.908 7.028 3.493 3.229 5.239 7.471 5.239 12.725 0 4.78-1.413 8.975-4.239 12.584-2.794 3.608-6.636 6.426-11.526 8.452-4.858 1.994-10.463 2.991-16.813 2.991-9.685 0-17.401-2.01-23.148-6.03-5.716-4.052-9.065-9.56-10.05-16.525l19.957-1.044c.603 2.944 2.064 5.191 4.382 6.742 2.318 1.52 5.287 2.28 8.906 2.28 3.557 0 6.414-.681 8.574-2.042 2.19-1.393 3.302-3.182 3.334-5.366-.032-1.836-.81-3.339-2.334-4.511-1.524-1.203-3.874-2.121-7.049-2.754l-12.67-2.516c-7.144-1.425-12.463-3.894-15.955-7.408-3.461-3.514-5.192-7.993-5.192-13.438 0-4.685 1.27-8.721 3.81-12.108 2.572-3.387 6.176-5.999 10.812-7.835 4.668-1.836 10.129-2.754 16.385-2.754 9.24 0 16.511 1.947 21.814 5.841 5.334 3.893 8.446 9.196 9.335 15.907Z" fill="#000" />
</svg>
