<svg width="600" height="250" viewBox="0 0 600 250" fill="none" xmlns="http://www.w3.org/2000/svg">
	<path d="M312 112c-12 0-21 10-21 39 0 26 7 39 21 39 16 0 21-17 21-39 0-21-1-39-21-39Zm80 95h-56c-1 0-2-1-2-3v-15h-1c-6 12-14 21-36 21-28 0-47-22-47-59 0-39 23-60 48-60 20 0 30 6 36 20V66c-1-4-3-4-7-4l-12-1c-2 0-3 0-3-2V44c0-2 1-3 3-3l55-1c1 0 2 1 2 3v129l1 7c1 3 3 4 6 4h13c1 0 2 1 2 3v18c0 2-1 3-2 3" fill="#000" />
	<path d="M260 93c-10 0-18-7-18-17s9-15 12-16c-2-2-4-4-10-4-13 0-22 6-22 24v14h22c2 0 3 1 3 3v15c0 2-1 3-3 3h-22v56l1 7c1 4 3 4 6 4l12 1c2 0 3 0 3 2v18c0 2-1 3-2 3h-77c-1 0-2-1-2-3v-18c0-2 1-2 3-2l10-1c4 0 6 0 7-4v-63h-18c-1 0-2-1-2-3V97c0-2 1-3 2-3h18v-8c0-24 20-46 54-46 30 0 42 19 42 31 0 14-9 22-19 22M436 193c0-10-8-17-17-17s-17 7-17 17 8 17 17 17 17-7 17-17Z" fill="#000" />
</svg>
