<svg width="86" height="150" viewBox="0 0 86 150" fill="none" xmlns="http://www.w3.org/2000/svg">
	<path fill-rule="evenodd" clip-rule="evenodd" d="M53 131s-11-6-14-6l-14 5c3 3 8 7 13 7 4 0 15-6 15-6Zm-15-8s-7-8-10-8l-14 2c3 3 6 9 10 9l14-3Zm-11-11s-4-8-7-9H7c1 4 3 10 8 11l12-2Zm-7-12s-3-9-5-10L2 88c1 4 1 10 6 11l12 1Zm-5-13s-1-9-3-11L0 72c0 4-1 10 3 12l12 3Zm-2-14V62L2 55c-1 4-3 10 0 13l11 5Zm1-14s3-9 2-11l-9-8c-1 3-5 9-3 12l10 7Zm4-14 4-10-7-9c-2 2-6 7-5 10 0 3 8 10 8 9Zm6-12s6-8 6-10l-4-9c0-1-7 6-7 9-1 2 5 10 5 10Zm8-11 8-7-1-10s-8 4-9 7c-1 2 2 10 2 10Zm11-8 8-6 1-8s-9 3-10 5 0 9 1 9Zm5 112s-10-4-9-7c0-3 7-13 7-13s6 4 6 7l-4 13Zm-12-9c0 1-8-5-7-8l9-12s5 5 4 8l-6 12Zm-9-10s-6-7-5-10 11-10 11-10 3 6 2 8l-8 12Zm-6-12c-1 0-5-8-3-11l12-8s2 6 1 8L21 95Zm-4-13s-3-9-1-11c2-3 13-7 13-7s1 7-1 9l-11 9Zm-1-14s-1-9 2-11c2-2 13-4 13-4s-1 6-3 8c-1 2-12 7-12 7Zm2-13c-1 0 1-10 3-11 3-2 14-2 14-2s-2 6-4 7l-13 6Zm4-13c0-1 3-9 6-10h13l-6 6-13 4Zm7-13s5-8 8-8l12 2s-4 5-7 5l-13 1Zm11-11c-1 0 7-6 10-6l11 3s-6 5-9 5l-12-2Zm41 132c-3-7-13-15-19-18l-8-3-3-2c0-3 5-14 5-14l6 5 1 12c8 3 18 10 23 17l-5 3ZM51 11s6-9 9-9l12 1-8 8H51Z" fill="#333" />
</svg>
