<svg width="600" height="250" viewBox="0 0 600 250" fill="none" xmlns="http://www.w3.org/2000/svg">
	<path fill-rule="evenodd" clip-rule="evenodd" d="M57 178v-35L36 72h18l12 48h1l12-48h16l-21 71v35H57Zm58-82v57c0 8 3 11 9 11 5 0 8-3 8-11V96c0-7-3-10-8-10-6 0-9 3-9 10Zm-17 56V98c0-17 9-27 26-27 16 0 25 10 25 27v54c0 17-9 27-25 27-17 0-26-10-26-27Zm61-80h16v82c0 7 4 10 9 10s9-3 9-10V72h16v80c0 17-9 27-25 27-17 0-25-10-25-27V72Zm113 106h-17c-1-3-2-5-2-13v-17c0-10-3-13-11-13h-5v43h-17V72h25c17 0 25 8 25 24v9c0 11-4 18-11 21 8 4 11 12 11 23v16c0 5 0 9 2 13Zm-27-91h-8v33h6c6 0 10-3 10-11V98c0-7-2-11-8-11Zm34 11c0-17 8-27 24-27 17 0 25 10 25 27v3h-16v-5c0-7-3-10-8-10-6 0-9 3-9 10 0 8 4 14 15 23 14 13 18 21 18 33 0 17-8 27-25 27-16 0-25-10-25-27v-6h16v7c0 8 3 11 9 11 5 0 8-3 8-11 0-7-3-13-14-23-14-12-18-20-18-32Zm54-11V72h51v15h-17v91h-17V87h-17Zm74 9v57c0 8 3 11 8 11 6 0 9-3 9-11V96c0-7-3-10-9-10-5 0-8 3-8 10Zm-17 56V98c0-17 9-27 25-27 17 0 26 10 26 27v54c0 17-9 27-26 27-16 0-25-10-25-27Zm113 26h-17l-1-13v-17c0-10-3-13-11-13h-6v43h-16V72h25c17 0 24 8 24 24v9c0 11-3 18-10 21 8 4 11 12 11 23v16l1 13Zm-27-91h-8v33h7c6 0 10-3 10-11V98c0-7-3-11-9-11Zm51 91v-35l-21-71h17l13 48 12-48h16l-21 71v35h-16Z" fill="#000" />
</svg>
