<svg xmlns="http://www.w3.org/2000/svg" width="62" height="60"><path fill="#FF5E00" fill-rule="evenodd" d="M61.5 22.3L59.8 25a50.5 50.5 0 0 0-6.4 16.3c-2.2 17.4-9.2 18.3-17.4 18.3a27 27 0 0 1-18.7-7.9L1 37.3a2.8 2.8 0 0 1 1.9-4.9l1.2.3 5.6 2.7c1.9 1 6 3 8.6 3 .6 0 1-.2 1.4-.4 3.1-1.7 1.8-7.7-.9-17.4L15.3 8a3 3 0 0 1 4.3-3.4A3 3 0 0 1 21 6.4l5.4 15.5c1 2.7 1.6 3.7 2.6 3.7h.2c1.1-.2 1.4-1.3 1.4-3.2L30.9 3a3 3 0 1 1 6 0l.3 18.6c0 1.8.3 3.8 1.7 4h.3c1.6 0 2.2-2.6 2.4-3.6l3.1-15a3 3 0 0 1 3.4-2.4A3 3 0 0 1 50.7 8L48 26c-.1 1.1.3 2 1 2.4l.6.1c.6 0 1.2-.3 1.7-.8l6.2-8.3a2.5 2.5 0 0 1 3.5-.6 2.5 2.5 0 0 1 .5 3.6z"/></svg>