<svg xmlns="http://www.w3.org/2000/svg" width="1037.333" height="1037.333" version="1" viewBox="0 0 778 778"><path d="M208.7 31.6c-.1.1-3.8.5-8.2.8-9.7.7-15.1 1.4-23 2.8-3.3.5-6.9 1.1-8 1.3-3.9.5-16.1 3.6-23.5 5.9-39.4 12.5-70.2 36.2-90.5 69.6-2.2 3.6-4.6 7.5-5.3 8.5-4.2 6.7-12.5 25.7-17.7 40.5-5.7 16.5-15.5 57.4-14 58.8.7.8 102 .6 103.2-.1.6-.4 1.3-1.9 1.6-3.4 3.3-17.7 12.5-41.2 21.3-54.3 13.5-20.3 32.5-30.9 61.9-34.5 4.5-.6 29.6-.5 33 0 22.4 3.7 36.3 9.2 50.3 19.7 6.5 4.8 17.6 15.9 19.9 19.9 1 1.6 2.1 2.9 2.5 2.9.4 0 .8.4.8 1 0 .5 1.3 3 3 5.6 2.8 4.5 7.6 15.9 8.4 20 .2 1 .9 3.7 1.5 5.9 3.4 13.1 3.3 37.6-.4 52.7-.9 3.5-1.7 7-2 7.9-.2.9-1.7 5-3.5 9.2-7.8 18.8-24.8 35.7-43 43-14.3 5.6-41.1 9.3-70.5 9.6l-8 .1v44.5c0 29 .3 44.5 1 44.6.5.1 5.1.3 10 .4 18 .6 26.4 1.4 41.5 4.1 51.5 9.2 82.1 43.3 86.6 96.8 2.4 28.5-1.7 53-12.5 74.4-11.2 22.2-31 41.5-52.1 51-6.4 2.8-19 7.3-19 6.7 0-.3-1-.1-2.3.4-4.4 1.7-16.8 3.3-27.2 3.5-13.9.4-26-1-42.5-4.9-5.2-1.2-15.6-5.3-22.4-8.8-28.3-14.7-48.1-42.1-56-77.8-1-4.2-1.9-8.4-2-9.5-.3-1.8-2-1.9-51-2.2L-.2 548l.6 2.7c.3 1.6.8 5.5 1.1 8.8.3 3.3 1 8.5 1.5 11.5s1.2 7.3 1.5 9.5c2 13.7 10 40 16.5 54.1 10.7 23.2 29.9 48 51 65.6 14.8 12.4 39.2 26 58.5 32.8 9.3 3.3 28.6 8.3 36.5 9.5 2.5.4 5.2.9 6.1 1 3.5.7 12.2 1.7 21.1 2.4 9.3.8 46.5.6 50.3-.2 1.1-.3 5.2-.8 9-1.2 3.9-.4 7.9-.9 9-1.1 1.1-.2 4.5-.8 7.5-1.4 9.6-1.8 10.3-1.9 20-4.6 24-6.7 52.3-20.5 70.4-34.5 26.5-20.3 47.5-45.7 60.7-73.4 4.5-9.4 12.5-31.6 13.5-37.4.3-1.4.7-3.4 1-4.3 1.6-5.5 4.1-22 4.9-32.8.5-6.9.5-36 0-41-.3-2.5-.7-6.8-1-9.5-.6-6-3.5-22.6-4-23.5-.2-.4-.7-2.2-1-4-2.6-14.9-14.8-42.4-25.2-57.1-1.8-2.6-3.3-4.9-3.3-5.1 0-.3 27.6-.5 61.3-.4l61.2.1.2 165.5c.1 91 .3 165.8.3 166.2 0 .5 20 .8 44.5.8H618l.2-313.3.3-313.2 34-.1c18.7 0 34.5.1 35.1.3.7.3 1.1 91.2 1.1 313.1v312.7l44.7.3 44.6.2V31H450v44.5c0 41.7.1 44.5 1.8 44.6.9 0 18.6.1 39.3.1l37.7.1-.1 102.4-.1 102.3H401.1l2.8-4.3c4.2-6.2 8.5-14.3 11.6-21.7 3.2-7.5 8.2-21.7 8.9-25.1 6.8-33 7.6-49.2 4.1-80.9-7.7-68.8-59.7-129.2-130.1-150.9-5.5-1.7-10.9-3.3-12-3.5-1-.3-3.9-.9-6.4-1.5-8.7-1.9-21.4-3.9-31.5-4.7-7.2-.6-39.3-1.2-39.8-.8z"/></svg>