<svg width="700" height="700" fill="none" xmlns="http://www.w3.org/2000/svg">
	<circle cx="350" cy="350" r="350" fill="#FBBF24" />
	<mask id="a" style="mask-type:alpha" maskUnits="userSpaceOnUse" x="0" y="0" width="700" height="700">
		<circle cx="350" cy="350" r="350" fill="#000" />
	</mask>
	<g mask="url(#a)">
		<path d="M-235 751c19-40 51-78 51-78s-31 21-34 21c-2 1-6-1-6-4-1-2 28-20 28-20a795 795 0 0 0 32-38c2-9 4-25 2-36-1-15-7-34-1-44 5-9 4-23 4-23a83 83 0 0 1 68-1 129 129 0 0 0 44 8h4l11 1c6 1 8-1 8-1s13-13 24-19l15-7 23-11 12-5 25-9 9-6c2-2 21-8 22-8l8-5 20-8 5-5 3-1 31-12s2-4 6-5c3-1 16 1 16 1l264-22 3 3 8 7c0 1 11 8 18 16l58 70 16-2 6 1a641 641 0 0 1 37 7c2 1 11 5 17 10l3 4c5 6 1 16 1 16a423 423 0 0 0 51 22 20 20 0 0 1 6 8l7 2c2 2 10 13 16 16l14 7a204 204 0 0 1 18 16l8-6 4-1c5 1 7 8 12 11l15 8c9 4 16 15 25 23 10 8 36 22 41 25a307 307 0 0 1 33 30c6 9 7 2 25 21 19 18 35 23 35 23H-235Z" fill="#353535" />
		<path d="m580 548-45-46-37-48c-1-2-17-20-24-25-8-6-17-7-17-7l5-5 8 7c0 1 11 8 18 16l58 70 34 38Z" fill="#161616" />
		<path d="M624 751h13c-2-4-3-6-2-8 1-6 45-84 51-91 7-8 34-31 36-34 1-4-3-12-3-12l-34 45a1268 1268 0 0 0-52 79s8-65 15-84c7-20 8-28 14-40l17-31-2-6s-10 6-14 14l-29 103c-3 10-5 27-5 30-1-4-13-48-15-63-1-17-5-60-4-62 0-2 4-6 7-11 4-5 8-27 8-27l-15 29v-12c1-3 14-33 13-37-1-3-13-14-13-14s5 16 5 24-7 20-7 20 3-24 0-34c-1-5-4-10-6-13h-1l-3-2 4 6 3 4h-45l29 28 12 9-4 7s6 7 7 11c0 4-6 6-13 9-7 4-40 10-43 11s-12-5-16-1c-5 5-13 19-13 19s61 38 62 42c1 3-18 63-27 92h3c8-27 27-88 27-94 0 0-11-10-18-13l-33-21c-2-2-1-12 1-13h11c5-1 59-21 61-25l2-4 1 52 6 118h3l-4-77s14 49 13 50l-3 27Zm-18-186c-2-6-18-22-21-25-2-3-21-14-21-14l41 1 3 23v21l-2-6Z" fill="#161616" />
		<path d="m732 620-38 38-6 10s10 0 14-3 30-44 30-45ZM746 615c-1 4-21 38-23 45s-7 39-12 53-21 18-21 18l25-65 24-42c1-2-1-7-1-7l8-6v4ZM525 614l-1 3s-26 40-28 58l-11 76h-8c4-24 11-70 14-78l28-56 6-3Z" fill="#161616" />
		<path d="m572 657-28 94h-3l27-93c0-3-54-28-54-28l1-2 57 29Z" fill="#161616" />
		<path d="M464 751h3c4-27 13-74 15-80l26-63 13-16 15-6h9a541 541 0 0 0 57-19v-5s-18 11-33 16c-15 4-27 6-29 5-1-2-11-21-35-49-23-28-33-43-38-49-5-5-19-46-19-46s-15 4-14 6l16 46c1 4-5 25-5 25l-19-57 1 75-3 57-19 156 3 4h25l2-151c0-3 5-14 5-14l27 11-15 154h6l20-152 26 9s-26 63-27 69l-13 74Zm22-153c-2-2-39-15-42-17-2-2-9-10-9-12l13-54c1-4 14-21 14-21l-10 22s11-3 12-6l2-20 22 28c1 0 42 50 43 53l6 13s-12 2-21 10c-6 5-9 11-10 13l-20-9ZM28 634s35-28 48-43c14-15 36-52 36-52l1 56s74-103 73-112l-5-21s-39 19-45 28l-41 68s-21 35-41 51c-21 15-30 24-36 29l-20 16-14 8-5 7-7-1 10 51 12 32h3l-6-13 37-104Zm-52 40 7-5 7-7 21-13-23 81-4-11-8-45Z" fill="#161616" />
		<path opacity=".4" d="m461 421 7 3s19 45 21 55 17 54 18 57l12 18 19 20s15-1 14-3c0-3-14-17-14-17l14 8 13 8-6-17-1-9 14 12c2 2 5 12 5 12l12-6 9-1-19 11-40 11-4-7s-17-26-33-44c-16-17-18-21-18-21l-8 40c-1 4 2 38 2 38l11-30 8-9-8 36c1 3 12 14 12 14l-20-6-12-2 1-21-5 22s-4 0-4-3l5-27 9-29v-14l-15 61s3-28 5-34l8-37v-12l-4-9-6-3-7-6-5 26-7 16-4 16c1 4 5 14 8 17l7 5 7-15s-6 27-5 29l1 17-24-12c0-1-10-28-11-37l-1-46c-1-20-5-19 3-39 7-19 14-27 16-31 3-3 20-5 20-5Z" fill="#161616" />
		<path opacity=".4" d="M506 609s-14 15-16 20l-15 45-2 34-7 43h-46l-3-9v-51l3-74 4-33c-1-4 0-6 1-7l15 6 18 9-4 50 3 27 10-29 8-44s26 9 31 13Z" fill="#161616" />
		<path opacity=".4" d="M605 576s-4-4-8-2c-3 1-8 7-13 8l-42 11c-3 0-13-2-16 1-3 2-27 43-29 46l-21 59-2 8 5-34c2-2 18-45 18-46s12-25 18-31 15-10 18-10l14-2 29-7c5-1 22-10 23-10l6 9ZM609 548l-10-19-6-4-6 1 9 9c2 2 8 29 8 29l-10-12-19-17-12-10h21l23 1 2 12v10Z" fill="#161616" />
		<path opacity=".4" d="m523 618 1 5 41 26 4 8-54-29s5-11 8-10Z" fill="#161616" />
		<path opacity=".4" d="m603 587-13 164h-35l22-69 5-24-8-42-8-13-13 34-31-20s8-18 13-18 6 3 17 2 17-4 26-6l18-6 7-2ZM628 725l-2 26h-10l-2-56s-3-22 0-24v18c1 6 14 36 14 36ZM613 583s-2-4 0 2c2 5 26 26 28 33s-11 74-11 78c-1 3 1 26 1 26l-3-2-15-60-2-22-2-50c0-2 4-5 4-5Z" fill="#161616" />
		<path d="m791 737 10-18c0-1 2-4 5-5l24-7-42 5s-53 2-57-1c-3-3-8-41-8-49 0-7 2-10 3-12l-14 15c-4 3-12 6-16 7-4 0-11-1-12-3l3-17c1-5 23-26 23-26l-19 5-18-2c-3-2-9-20-9-25 0-6 4-17 4-17l-13 30c-6 11-16 54-16 55l-8 39-3 30-1 2v8h155l9-14Zm-146-18-9 13 6-28c2-5 17-13 17-13l-14 28Zm41 25c-2 0-7-13-8-22-2-9 6-33 14-39 9-5 15 6 15 8l-2 28-7 25h-12ZM182 463l-14 27-47 37-36 16 20-28c3-5 31-31 30-33-1-1-24-4-25-2-2 2-8 12-11 12s-13-9-14-9c-2-1-14 29-18 30l-26 3 4-15 5-7 25-9 9-6c2-2 21-8 22-8l8-5 20-8 5-5 3-1c-2 4-4 14-3 14 0 1 17 5 24 3l19-6ZM40 566s-17 1-27-1c-10-1-39-18-42-19l-15-8-2-2h3l11 1c6 1 8-1 8-1s13-13 24-19l15-7-6 6c-3 5-13 18-11 20 2 3 26 12 30 17l12 13ZM13 648l7-7-6 25-2 85H-5l-12-30-9-49 7-3 6-5 24-11c2-2 2-5 2-5ZM151 623s-4 86-21 128H80l32-212c4-5 13-7 14-5l25 89Z" fill="#161616" opacity=".4" />
		<path opacity=".4" d="m11 647 3-30 4-15s-13 3-18 11 1 37 0 40 11-6 11-6Z" fill="#161616" />
		<path d="M110 532s-34 46-56 67c-21 21-34 30-37 33l-6 12 21-19c5-3 26-18 45-42 20-24 33-51 33-51Z" fill="url(#b)" />
		<path d="m13 710 10-21c5-7 17-47 19-53l22-31-23 18c-3 2-14 10-13 11l-14 40-1 36Z" fill="url(#c)" />
		<path d="M-28 666s7-28 3-40l-14-16-8-10-6-9 14-25 4-16 23 15c4 2 28 6 28 6l-12-9-30-14-16-9s2 12-5 30c-6 19-35 53-35 53s37-2 47 10c11 12 7 34 7 34Z" fill="url(#d)" />
		<path d="m601 561-2 3-27 12c-4 3-25 9-31 7l34-10 23-12-9-6-9-7-26-30-8-8 16-2 6 1c-5 0-14 3-14 3l5 8 24 1h17v-4l5 7h-45l25 24 16 13Z" fill="#505151" />
		<path d="M468 426s12 6 22 19c11 12 24 30 25 32l10 60-16-48-34-48-7-15Z" fill="url(#e)" />
		<path d="M537 584s-13-23-28-42l-25-31s31 46 31 48c1 3-14 41-14 41l-23-7 28 14s8-12 14-17c6-4 17-6 17-6Z" fill="url(#f)" />
		<path d="M602 581c-2 6-35 15-49 17s-5-2-16-1-10 8-16 18-25 44-32 62c-7 19-11 73-11 73l-1 1h-3c2-16 8-63 11-70 3-9 18-40 21-45 4-6 19-42 20-42l13-1 12-2 36-10 10-7h4s4 2 1 7Z" fill="url(#g)" />
		<path d="m466 492-1 18-13 6 8-19-12 18-1 4 7 3 10-5c1 1-2 28-2 28l-5 30 1 12 2-8 3-18 9-47 1-13-7-9Z" fill="url(#h)" />
		<path d="m581 659-27 92h-4l26-89c0-4-6-9-7-10-1-2-45-29-45-29l-2-4 24 15 35 25Z" fill="#505151" />
		<path d="M516 631s34 24 35 29-2 41-2 46v17l19-65s-40-23-52-27Z" fill="url(#i)" />
		<path d="m608 581-2 4-3 3c0 2-6 65-5 73 1 9 14 45 14 45l-3-70-1-55Z" fill="url(#j)" />
		<path d="m673 564 4 4-13 12c-3 4-18 62-18 62l-14 50v-8l5-32c2-6 21-72 21-76 0-3-2-6-5-10s-28-13-28-13l-15 28v-11c0-3 10-25 11-29s2-10 1-13v-2l3 4c5 6 1 16 1 16s38 13 47 18Z" fill="url(#k)" />
		<path d="M728 613c-2-2-7-3-9-7-2-3-9-3-13-6-3-4-18-5-20-9a99 99 0 0 1-3-15l7 2c2 2 10 13 16 16l14 7 18 16c-1-1-8-2-10-4Z" fill="url(#l)" />
		<path d="M723 630s-13 2-17 4l-19 18-3 17s6 3 12 3c5 0 23-13 25-15 2-1 7-11 7-14l-2-10s-21 30-24 32c-4 3-14 3-14 3-1-1 7-12 8-13l27-25Z" fill="url(#m)" />
		<path d="m135 482-19 21c-5 2-12-2-14 0s-4 16-13 25-21 16-21 15l1-31c0-2 13-28 15-29 1 0 10 9 13 9 2 0 13-11 17-12s21 2 21 2Z" fill="url(#n)" />
		<path d="M194 444c0 2-17 5-25 9s-28 15-29 14 1-10 2-15l31-12s2-4 6-5v1c4 4 15 7 15 8Z" fill="url(#o)" />
		<path d="m432 581-2 34a3965 3965 0 0 0-3 135H107l2-126a2225 2225 0 0 1 5-72c1-8 3-15 6-21 7-18 22-27 25-28l15-13 4-5 5-3c10-7 33-22 40-25 8-4 129-1 164 6s44 28 44 28l6 35 9 54v1Z" fill="#3D3763" />
		<path d="m432 581-2 34c-4 34-11 93-12 135h-5a1043 1043 0 0 1 19-170v1ZM155 685v1-1Z" fill="#282644" />
		<path opacity=".5" d="M344 730c-2-1-48-14-77-31l-58-31c-14-7-33-14-43-21-10-8-20-22-20-22s0 24 2 33c1 8 6 25 7 27-2-3-33-32-46-61a2225 2225 0 0 1 5-72l9 28s28-74 37-90l4-5 5-3c9 7 62 55 73 71 11 17 3 37 3 37l17 30c3 4 18 33 29 42 11 10 32 23 33 25l14 33s-48-30-67-49c-18-20-56-58-58-59 2 2 48 62 57 70l47 36c4 4 25 11 27 12ZM382 688l18-34c-6 17-14 36-14 39l-9 57h-18l1-28 22-34Z" fill="#282644" />
		<path d="m412 624-3 12-9 18 8-20 4-10Z" fill="#282644" />
		<path opacity=".5" d="m432 581-2 34-1 23v5l-2 107h-12l6-73s-14 24-17 33l-12 40h-1l3-43a1120 1120 0 0 1 24-106l1-2h-1c-2 3-10 14-16 30-8 19-45 71-45 71l8-32 26-60 4-31 2-12h-1c-5 1-22 1-16-11 8-14 21-20 35-26 3-2 6-3 8-2l2 12 7 42v1Z" fill="#282644" />
		<path d="M282 641s-8-11-12-14l-47-31 11 25 20 32-18-23c-6-7-12-21-15-25l-16-17 12 26s39 54 59 71l20 19-48-41c-9-7-45-41-51-44-5-2-49 6-51 6-1 0-16 1-16-4 1-5 20-34 21-37s48-40 66-38c18 3 42 5 54 32 11 27 11 63 11 63ZM432 581l-2 34-1 23-11-34a30 30 0 0 0 0-5l-1-11-17 42s-8-20-8-24c0-3 12-28 12-30l-2-7-7 8-18 22 19-34c7-11 16-23 23-26l6-1 7 42v1Z" fill="#282644" />
		<path d="M347 728s-3-6-9-8c-6-3-48-31-58-40l-38-39-13-13s29 37 39 46c10 10 34 33 51 43s28 11 28 11Z" fill="url(#p)" />
		<path d="m354 728-2-16c1-2 30-45 38-60l26-49s-6 31-19 55l-43 70Z" fill="url(#q)" />
		<path d="m193 576 41 59c13 20 58 66 76 77s37 18 37 16l-9-54 4-2 12 56s38-56 49-83c12-28 21-80 21-80v17s-11 84-73 149c0 0-59-8-113-81-54-74-66-97-66-97l21 23Z" fill="#282644" />
		<path d="M407 644c0 2-14 61-15 72l-1 34h-8l5-34c0-2-2-24-1-27l20-45Z" fill="url(#r)" />
		<path d="m123 746 2 4h-18l2-126s9 108 14 122Z" fill="url(#s)" />
		<path d="m188 682 36 68h-51c-8-22-18-61-18-65l-9-60 13 17 29 40Z" fill="url(#t)" />
		<path d="M333 750h-47l-49-66c1 0 62 30 69 35 4 2 16 17 27 31Z" fill="url(#u)" />
		<path d="m441 590-2 8-1 2c-17-4-19-26-19-30l-2-23-11 9s-14 40-28 70c-8 19-20 38-28 49l-9 12a207 207 0 0 1-23-11c-33-20-48-42-57-55-10-16-40-57-40-57l-29 18c-15 9-48 13-54 14-5 0-7-2-7-2l1-1c3-6 14-32 16-52 1-24 3-32 6-41a475 475 0 0 1 44-72c7-7 21-13 26-15h1s49-5 66-1c15 3 116 40 134 48l3 2 4 32 2 52h1l6 44Z" fill="#ACBDEA" />
		<path d="M210 477s-12-32-9-42c2-10 24-18 24-18 13 39-15 60-15 60ZM439 598l-1 2c-12-3-16-15-18-23a84 84 0 0 0-1-4v-3l-2-23c0-1 4-8 4-12l1-65 3-10 1 5v23l2 47 4 5v2c1 3 0 8-2 13-3 7-7 16-7 22 0 11 13 19 14 20l2 1Z" fill="#8E9DBD" />
		<path d="m420 467-25 42c0 4-9 25-15 40l-7 16c0 3-20 40-20 41l-4 6a1869 1869 0 0 1-17 25l-11-13-10-13-15-23-1-2-18-14c-9-7-24-13-25-14l-6-4-4-1-6-1c-6 0-12 6-22 14a146 146 0 0 1-82 27l-1 1s2 2 7 2c6-1 39-5 54-14l29-18a289 289 0 0 0 3 3l31 45 2 2 3 5 9 4 13 15 5 6 23 11 8 5v2l-1 13 1 1c4-12 11-31 19-42 8-12 30-25 42-34l8-6c3-6-2-19-2-20v-1l21-25 3-24 13-52-2-5ZM266 605l-11-10a68 68 0 0 1-10-17h1a69 69 0 0 0 18 8l5 18 3 3a105 105 0 0 0 2 4l1 1-9-7Zm59 48-12-10-11-23 11 7c3 2 5 7 6 8l7 14c1 1-1 4-1 4Z" fill="#8E9DBD" />
		<path d="m406 556-14 38-14 32a334 334 0 0 1-28 49l-1-6v-5c-1-3 3-36 3-36l-11 10-12 15 15-24a1550 1550 0 0 1 47-37c1-4-2-16-2-16l17-20Z" fill="#8E9DBD" />
		<path d="M214 552s-1-5-8-12c-6-8-28-40-29-47v-17s-15 28-16 34l-4 24s-3-24 1-34c3-11 28-51 29-53a191 191 0 0 1 8-15c-4 7-7 16-5 25 6 21 14 50 19 59 5 10 5 36 5 36Z" fill="url(#v)" />
		<path d="M210 477s-12-32-9-42c1-6 9-11 15-14l9-4 4 16c1 29-19 44-19 44ZM295 586c-6 2-15 3-23 2-13-2-26-9-30-12l-17-10a3273 3273 0 0 0 9 16l-13-18c8-7 16-11 19-11h2l4 1a100 100 0 0 0 6 4l8 4a121 121 0 0 1 35 24Z" fill="#667182" />
		<path d="m335 632-3 5-11-13-6-9 2 10 1 9h1v1l7 14c1 1-1 4-1 4l-12-10-2-3c-7-8-34-41-35-44s8-11 8-11l-26-3 1 3 5 1 5 18a57 57 0 0 0 5 7l1 1a502 502 0 0 0 28 30l-21-4 5 6 23 11 8 5v2l-1 13 1 1c4-11 10-28 17-39v-5Z" fill="url(#w)" />
		<path d="m289 623-12-3c-4-1-13-2-20-6l-2-2a4110 4110 0 0 0-33-46v-1l7-3 18 14-1 2v1c-1 4-3 10-1 13 2 4 14 9 21 13l9 7-1-1-2-4 17 16Z" fill="url(#x)" />
		<path d="M430 555c1-6 2-12 1-13-1-3-6-5-7-6 1 1 5 4 5 10l-3 9c-3 6-6 13-6 19v3a84 84 0 0 0-1-4v-3l-2-23c0-1 4-8 4-12l1-65 4-5v23l-2 7-1 39 5 1 4 5v2c1 3 0 8-2 13ZM385 574c0 1 5 14 2 20l-8 6 7-7c1-4-2-14-3-14l-35 37 1-4 8-35s17-24 20-26l3-2 10-4-3 18-2 10v1Z" fill="#667182" />
		<path d="M406 556a1146 1146 0 0 1-22 58l4-16-36 30-11 10-12 15 15-24 35-26 12-11c1-4-2-16-2-16l17-20Z" fill="url(#y)" />
		<path d="m441 590-2 8-3-3c-1-1-10-10-11-18-1-2 0-7 1-11l8-19 1-1v1l6 43Z" fill="#8E9DBD" />
		<path d="m441 590-2 8-3-3c-1-1-10-10-11-18-1-2 0-7 1-11v7c2 6 8 9 8 7l1-33 6 43Z" fill="url(#z)" />
		<path opacity=".7" d="M210 477s-12-32-9-42c1-6 9-11 15-14l-10 11c-2 3 5 33 5 33s6-4 10-10c3-6 4-27 4-27l4 5c1 29-19 44-19 44Z" fill="#3A4149" />
		<path d="M295 586c-6 2-15 3-23 2-13-2-26-9-30-12l-17-10-4-2c8-7 16-11 19-11h2l4 1 5 3-11-1c-1 0-1 13 1 14 1 2 7 8 17 12 10 5 29 4 29 4l-7-9c-2-3-14-11-20-15a121 121 0 0 1 35 24Z" fill="url(#A)" />
		<path d="M426 555c0-2-6 13-6 19v3a84 84 0 0 0-1-4v-3l-2-23c0-1 4-8 4-12l3 1c1 1 5 4 5 10l-3 9Z" fill="#3A4149" />
		<path d="M270 582c-1 2-3 3-5 3-2 1-5 1-8-1-5-2-8-6-7-10v-1c2-4 8-5 13-2 5 2 8 7 7 11Z" fill="#9E9E9E" />
		<path d="M267 579c-2-7-14-9-17-5-1 4 2 8 7 10 3 2 6 2 8 1s3-3 2-6Zm-5 1-4 1-2-4h4l2 3Z" fill="#797A7A" />
		<path d="M259 576s-4-1-3 2c0 2 4 5 6 4s-1-5-1-5 5 2 4 5-9 2-11-3c-3-4 1-4 5-3Z" fill="#505151" />
		<path d="M266 578s2-2 1-3l-4-3c-1-1-2 1-2 1s4 2 5 5Z" fill="#CACCCC" />
		<path d="m335 637-1-1-5 7-4-5-6-4v1l7 14c1 1-1 4-1 4l-11-9-11-2 10 9 10 6-6 18 1 1c4-11 10-28 17-39Z" fill="url(#B)" />
		<path d="M246 554s-9-2-14-1c-6 1-26 17-42 26-15 10-53 14-58 14 3-6 14-32 16-52 1-24 3-32 6-41l29-50c-3 9-22 36-25 47-3 12 0 27-1 37 0 9-7 42-7 42s4 1 21-4 43-20 43-20l14-7c1-2-1-7-3-10-1-2-29-60-34-76-5-15 6-29 7-31 7-7 21-13 26-15l2 4s-21 7-25 18c-5 11 9 42 9 42l36 77Z" fill="url(#C)" />
		<path d="M246 543v11l6 4c1 1 21 10 29 16l15 14 18 26 17 21c2 2-3-22-4-23 0-2-15-29-21-36-6-6-17-14-28-20-10-6-32-14-32-14v1ZM391 591c-2 5-21 18-21 18l-27 21-14 23c-2 3-6 20-7 24l-4-1s11-30 15-36l10-13c1-1 19-16 29-22s16-9 16-15l-2-15c-1-2 0-3 1-4l2 5s4 11 2 15ZM420 472l-3 62c0 2-11 14-12 16l-5 12s21-18 21-27v-68l-1 5ZM436 595l-8-6c-2-1-6-10-5-14 0-3 8-23 9-30s-4-10-4-10l-2-51v-19l2-3 4 32 2 52c-1 9-10 20-10 29s11 20 12 20Z" fill="#D7E2FA" />
		<path d="M342 662c0 6-4 10-8 10h-1c-4-1-6-5-6-10 0-6 3-11 7-11h2c3 2 6 6 6 11Z" fill="#E3E3E3" />
		<path d="M340 657c0-3-2-5-4-6l-3 3c-4 6-5 15 0 18l4-1c2-3 4-9 3-14Zm-4 9c-2 0-3-2-3-4s1-4 3-4l2 4-2 4Z" fill="#B9B9BA" />
		<path d="m392 594-14 32a334 334 0 0 1-28 49l-1-6 3-11c2-11 35-59 35-59l5-6v1Z" fill="#667182" />
		<path d="m406 556-15 40-3 2-9 5 12-11c1-4-2-16-2-16l17-20Z" fill="#3A4149" />
		<path d="M511 264a37 37 0 0 1-2 10 17 17 0 0 0 0 1l-2 6v2a207 207 0 0 0-2 14l-1 4v5h-1v6l-1 1v3a1359 1359 0 0 0-1 6l-1 2v19c-1 4-4 7-4 7v1l-1 1v1l-1 1a10 10 0 0 1-2 2h-2l-1 1v1l-1 3v1l-1 2v1l-5 18v2h-1v3h-1v2l-1 2-1 2-1 2v2l-1 2-1 2-1 2v1a151 151 0 0 1-4 8l-1 2-1 2a91 91 0 0 1-2 4 182 182 0 0 1-14 19l-2 2a211 211 0 0 1-16 18l-2 2v1l-1 1-3 2-1 1-1 1-1 1-1 1-1 1-1 1v1l-12 29-1 2h-1l-1 2v2l-1 1-1 3c-8 15-18 51-18 51h-1v1h-1v1l-1 2h-1l-1 2h-1v2a98 98 0 0 0-4 4v1h-1v1l-2 2a254 254 0 0 0-13 22l-1 1-1 2-1 1-1 3-1 1a152 152 0 0 1-8 11l-12 16v1l-4 4c-1-8-11-23-19-33l-19-26-6-6v-1h-1l-1-1h-1l-1-1-1-1-2-1-1-1-2-1-1-1-1-1-2-1-2-1a94 94 0 0 0-4-2h-1v-1a46 46 0 0 0-2-1h-2l-1-1h-1l-1-1h-1l-2-1h-1l-1-1h-1v-1a19 19 0 0 1-1 0v-1h-1v-1h-1v-1h-1v-1a71 71 0 0 1-4-7h-1v-2h-1a95 95 0 0 1-1-3l-6-10v-1l-4-7-1-2-3-6-1-1-2-4-1-2-1-2-1-2a9596 9596 0 0 0-8-17h-1v-1l-1-2v-1h-1v-1l-2-3v-1l2-1v-1l1-1a26 26 0 0 0 3-6 23 23 0 0 0 1-3l1-4c3-13 4-38 4-41v-1l-7-27-5-20-1-1-3-26-4-1v-1l-1-1a21 21 0 0 1-1-2v-3a107 107 0 0 1-2-28l-1-7v-3l1-14 1-3v-2l-1-2v-5l1-12-1-1v-1l-1-2v-1l-1-4h-1v-3l-1-1c0-2 5-9 8-13l2-3 4-25 9-49a307 307 0 0 1 9-28c5-8 29-17 56-25l22-7 45-10a141 141 0 0 1 97 17c9 6 18 13 25 20 15 17 23 51 26 80a306 306 0 0 1 4 46s7 3 9 7c1 2 2 4 1 6Z" fill="#EEC9B6" />
		<path d="M452 268s-13-9-30-8c-17 0-25 4-29 7 0 0-1-6 23-8s36 6 36 9ZM461 233l-13 3c-4-1-25 5-25 5l-28 7h-7v-6s2-12 6-14c4-1 40-4 50-3s17 8 17 8ZM337 247l-30-11s-42-13-46-13h-7l1-4s12-7 18-8h8s45 12 51 21c5 9 5 15 5 15ZM327 265c0-1-6-10-21-11-16-2-39 0-48 5 0 0 0-5 17-7 16-2 46-3 52 13ZM400 332c-1 9-7 9-10 10l-19 5c-3 1-10 8-17 8-7 1-13-6-13-7 0 1 5 5 11 5 6 1 11-2 19-7 7-4 12-5 19-5 7-1 8-5 9-11 1-5-3-10-4-10 4 1 6 4 5 12Z" fill="#E3AC9C" />
		<path d="m344 348-12-5h-8c-3 0-13-4-14-10s1-17 8-18c0 0-14 15-1 25l10 1c5 1 13 2 17 7ZM301 382l-7 2h-9l-3-3s0-2 3-2c2-1 9 2 10 2l6 1ZM425 383l-4 5-2-3-4-1h-10l2-2 4-1s10-3 11-2l3 4ZM267 379s-4-6-2-10c1-3 4-5 4-5s-3 9-2 15ZM441 376v-5l-4-5s3 0 5 3c1 2-1 7-1 7ZM324 269h-32l-14-3c-7 0-11-2-11-2l20-3 27 4 10 4ZM442 272s-11 4-22 5c-10 0-19-4-22-5h-4l18-3c3 0 24-4 30 3ZM199 282l-1-9 1-12-5-13c1 0 9 4 10 8 2 3-3 20-5 26ZM511 264a37 37 0 0 1-2 10l-4 23-1 9-1 1-3 21c-1 1-2-1-3-3l-2-4c0-1 8-11 8-19 0-9-5-28-5-28l-2 2v-1c3-2 10-11 14-12l1 1ZM500 343c-1 4-4 7-4 7-2 6-7 7-7 7v-3l1-8 1-19 1 7-1 20v-1l3-2a32 32 0 0 1 6-8ZM210 266l-2 25-1 15-1 4-6-11c-1-2 0-11 4-15s6-17 6-18ZM201 317l-3-7v-1l-1-7h1l4 8-1 7ZM205 314v2a900 900 0 0 1-3 28v-1l-1-1a18 18 0 0 1-1-2v-3a6 6 0 0 0 2-3v-2a183 183 0 0 0 1-16 7 7 0 0 1 2-2ZM312 278l-17 5c-11 2-37 0-42-3 0 0 16 3 30 3 13-1 27-5 29-5ZM453 287c-2 1-12 4-27 3-15-2-35-10-35-11 37 13 51 6 51 6-3 4-18 4-18 4 12 1 29-2 29-2ZM491 202s-2 0-5-4-8-41-22-53l-6-5c-14-10-35-17-57-18l-19 3c-16 5-30 14-37 14-10 1-27-4-36-5-8-1-35 17-40 19-5 3-25 8-29 13-3 5-13 38-13 38l-9 16-4 8 1-12a2214 2214 0 0 1 3-72c2-11 63-39 72-43 6-2 41-6 67-8l28-2s53 9 57 12c5 3 21 19 28 28 7 10 21 71 21 71Z" fill="#E3AC9C" />
		<path d="m499 306-3 6-5 8v-3l1-17 1-8 1-10v4l5 20ZM208 292l-3 14-1-1-2 2v3l3 4-1 6-2 16-1 4-1-3a107 107 0 0 1-2-28l-1-7v-3l1-14 1-3-1-4 2-3-1 11s9-2 9-4l2-17c-1-2-6-2-6-2l-6 10 1-12-5-13c0-2 5-9 8-13 4 1 10 21 11 22 0 1-2 15-1 17l-4 18Z" fill="#E3AC9C" />
		<path opacity=".3" d="M404 386h-2l-2 2-2 2 7-4h-1Zm-18 19h-3a13 13 0 0 1-1 0 208 208 0 0 1-2 1h-2l-8 4-5 3h-22a138 138 0 0 1-16-1l-6 1c-1 1 4 7 4 7s-9 5-14 3c-4-1-9-4-13-7l12 16c10 8 47 3 55 3a68 68 0 0 0 4-1l-1 1 3-1 4-1 1-1 5-2a7 7 0 0 0 2-2 19 19 0 0 0 1-2 54 54 0 0 0 3-6l4-7v-1a21 21 0 0 0 0-2l1-1 1-2v-2h1v-3l-8 3Zm-26 45 1 1 2 2-3-3Zm1-7v1a31 31 0 0 0-1 2l-1 2v1a63 63 0 0 1 2-6Zm35-105-2 1-12-3-3-1-16 5h-3a39 39 0 0 1-7-1l-3-1h-2v-1h-3v-1h-1c-4-2-12-12-12-15v-6h1-2l-1-1h-5a18 18 0 0 0-2 0h-4l-1 1s-14 15-1 25h4a36 36 0 0 0 3 1l1-1h6a15 15 0 0 1 1 0h1l1 1h2a7 7 0 0 1 2 1l1 1h2v1l1 1 5 4a35 35 0 0 0 1 1h1a14 14 0 0 0 2 2 3 3 0 0 0 1 0h2l2 1h2l1-1h2l1-1h1l1-1h1l1-1a45 45 0 0 0 2-1v-1a22 22 0 0 1 2-1h1l1-1 1-1h5l2-1h1a48 48 0 0 1 2-1h2l1-1a344 344 0 0 0 4 0h1a17 17 0 0 0 3-1l2-1a96 96 0 0 0 0-1Zm33-66-7 3 11-1-4-2Zm-33 66-2 1-12-3-3-1-16 5h-3a39 39 0 0 1-7-1l-3-1h-2v-1h-3v-1h-1c-4-2-12-12-12-15v-6h1-2l-1-1h-5a18 18 0 0 0-2 0h-4l-1 1s-14 15-1 25h4a36 36 0 0 0 3 1l1-1h4a63 63 0 0 1 2 0 15 15 0 0 1 1 0h1l1 1h2a7 7 0 0 1 2 1l1 1h2v1l1 1 5 4a35 35 0 0 0 1 1h1a14 14 0 0 0 2 2 3 3 0 0 0 1 0h2l2 1h2l1-1h2l1-1h1l1-1h1l1-1a45 45 0 0 0 2-1v-1a22 22 0 0 1 2-1h1l1-1 1-1h5l2-1h1a48 48 0 0 1 2-1h2l1-1a344 344 0 0 0 4 0h1a17 17 0 0 0 3-1l2-1a96 96 0 0 0 0-1Zm33-66-7 3 11-1-4-2Zm-25 114h-2l-2 2-2 2 7-4h-1Zm-18 19h-3a13 13 0 0 1-1 0 208 208 0 0 1-2 1h-2l-8 4-5 3h-22a138 138 0 0 1-16-1l-6 1c-1 1 4 7 4 7s-9 5-14 3c-4-1-9-4-13-7l12 16c10 8 47 3 55 3a68 68 0 0 0 4-1l-1 1 3-1 4-1 1-1 5-2a7 7 0 0 0 2-2 19 19 0 0 0 1-2 54 54 0 0 0 3-6l4-7v-1a21 21 0 0 0 0-2l1-1 1-2v-2h1v-3l-8 3Zm-25 38v1a31 31 0 0 0-1 2l-1 2v1a63 63 0 0 1 2-6Zm-1 7 1 1 2 2-3-3Zm36-112-2 1-12-3-3-1-16 5h-3a39 39 0 0 1-7-1l-3-1h-2v-1h-3v-1h-1c-4-2-12-12-12-15v-6h1-2l-1-1h-5a18 18 0 0 0-2 0h-4l-1 1s-14 15-1 25h4a36 36 0 0 0 3 1l1-1h4a63 63 0 0 1 3 0h1l1 1h2a7 7 0 0 1 2 1l1 1h2v1l1 1 5 4a35 35 0 0 0 1 1h1a14 14 0 0 0 2 2 3 3 0 0 0 1 0h2l2 1h2l1-1h2l1-1h1l1-1h1l1-1a45 45 0 0 0 2-1v-1a22 22 0 0 1 2-1h1l1-1 1-1h5l2-1h1a48 48 0 0 1 2-1h2l1-1a344 344 0 0 0 4 0h1a17 17 0 0 0 3-1l2-1a96 96 0 0 0 0-1Zm33-66-7 3 11-1-4-2Zm-25 114h-2l-2 2-2 2 7-4h-1Zm-18 19h-3a13 13 0 0 1-1 0 208 208 0 0 1-2 1h-2l-8 4-5 3h-22a138 138 0 0 1-16-1l-6 1c-1 1 4 7 4 7s-9 5-14 3c-4-1-9-4-13-7l12 16c10 8 47 3 55 3a68 68 0 0 0 4-1l-1 1 3-1 4-1 1-1 5-2a7 7 0 0 0 2-2 19 19 0 0 0 1-2 54 54 0 0 0 3-6l4-7v-1a21 21 0 0 0 0-2l1-1 1-2v-2h1v-3l-8 3Zm-25 38v1a31 31 0 0 0-1 2l-1 2v1a63 63 0 0 1 2-6Zm-1 7 1 1 2 2-3-3Zm36-112-2 1-12-3-3-1-16 5h-3a39 39 0 0 1-7-1l-3-1h-2v-1h-3v-1h-1c-4-2-12-12-12-15v-6h1-2l-1-1h-5a18 18 0 0 0-2 0h-4l-1 1s-14 15-1 25h5l2 1 1-1h3a42 42 0 0 1 1 0 63 63 0 0 1 6 1h2l1 1a14 14 0 0 1 3 1v1l1 1 5 4a35 35 0 0 0 1 1h1a14 14 0 0 0 2 2 3 3 0 0 0 1 0h2l2 1h2l1-1h2l1-1h1l1-1h1l1-1a45 45 0 0 0 2-1v-1a22 22 0 0 1 2-1h1l1-1 1-1h5l2-1h1a48 48 0 0 1 2-1h2l1-1a344 344 0 0 0 4 0h1a17 17 0 0 0 3-1l2-1a96 96 0 0 0 0-1Zm33-66-7 3 11-1-4-2Zm-25 114h-2l-2 2-2 2 7-4h-1Zm-20 19h-1a13 13 0 0 1-1 0 208 208 0 0 1-2 1h-2l-8 4-5 3h-22a118 118 0 0 1-16-1l-6 1c-1 1 4 7 4 7s-9 5-14 3c-4-1-9-4-13-7l12 16c10 8 47 3 55 3a68 68 0 0 0 4-1l-1 1 3-1 4-1 1-1 5-2a7 7 0 0 0 2-2 19 19 0 0 0 1-2 54 54 0 0 0 3-6l4-7v-1a21 21 0 0 0 0-2l1-1 1-2v-2h1v-3l-8 3h-2Zm-23 38v1a31 31 0 0 0-1 2l-1 2v1a63 63 0 0 1 2-6Zm-1 7 1 1 2 2a46 46 0 0 1-3-3Zm0 0Zm128-132v5c-1 6-10 27-14 25l-1-1a26 26 0 0 0-3-1h-3l-1-1h-3l-3-1h-1l-2-1-3-1-3-1a63 63 0 0 1-7-2l-1-1h-2l-2-1c-10-4-25-15-35-22l-5-4a56 56 0 0 1-3-2c-4-2-4-19-4-19l2 1a98 98 0 0 0 4 1h1l1 1a18 18 0 0 0 1 0h2l2 1h1a56 56 0 0 0 2 0l2 1h1a21 21 0 0 0 2 0h2l3 1h9a116 116 0 0 0 26-3l3-1h4l12-3c1-2 7-5 8-10v-3c0-8-5-22-5-22l-5-10-5-6-2-1-5-3a83 83 0 0 0-8-4v-1a28 28 0 0 0-5-1h-1a25 25 0 0 0-2-1 67 67 0 0 0-5 0h-2a100 100 0 0 0-10-1h-2a128 128 0 0 0-4 0h-5a79 79 0 0 0-10 1l-6 1-1 1h-3l-2 1a403 403 0 0 1-7 1h-3l-1 1h-1a429 429 0 0 1-8 1h-3l-2 1h-1a88 88 0 0 1-38-5l-6-3-2-1-3-1h-1l-4-2-7-3h-1l-3-1-4-2v-1l-13-3-9-1h-1l-18 8-1 1-7 1h-4s2-10 6-15c4-4 50-21 51-22 2-12 4-24 6-28l4-5a19 19 0 0 1 2-1 48 48 0 0 1 8-3l1-1h1l13-5a48 48 0 0 1 4-1l2-1h2v-1a16 16 0 0 0 3-1l9-7 12-8s-57-13-65-13a18 18 0 0 0-4 0l-10 3v1c-13 5-31 14-34 18a150 150 0 0 0-11 15l-1 2-1 2-1 1-2 2v1l-2 2-1 2-2 3a15 15 0 0 0-1 2l-5 8-2 3-6 8v1l-1 1v1l-4 31-1 12-2 26-1 10-3 25v10l-1 4v12h-1v2a349 349 0 0 1-4 27l5 1 2 26 1 1 5 20 7 27v1l1 1v1a121 121 0 0 1 5 14l-3 9a948 948 0 0 1-12 29l-1 1v1l-2 1a5 5 0 0 0 0 1l2 3v1h1v1l1 2v1h1a243 243 0 0 1 8 17l1 2 1 2 1 2 2 4 1 1 3 6 1 2 4 7v1l6 10v1a95 95 0 0 0 2 2v2h1a209 209 0 0 0 4 7v1h1v1h1v1h1v1a19 19 0 0 0 1 1h1l1 1h1l2 1h1l1 1h1a114 114 0 0 0 2 1h1v1h2v1h1a114 114 0 0 1 4 2 59 59 0 0 1 6 3v1a96 96 0 0 1 2 1l1 1 2 1 1 1 1 1h1l1 1h1v1l6 6 19 26c8 10 18 25 19 33l4-4v-1l12-16 2-2a447 447 0 0 0 6-9l1-1 1-3 1-1 1-2 1-1a74 74 0 0 0 2-4 114 114 0 0 1 11-18l2-2v-1l1-1a197 197 0 0 1 4-4v-2h1l1-2h1l1-2v-1h1v-1h1s10-36 18-51l1-3 1-1v-2l1-2h1l1-2c-6 6-16 14-29 20-15 8-26 11-33 11h-2a45 45 0 0 1-3 0h-5l2-1h3a60 60 0 0 0 4 0h2l4-1h1l1-1h2l5-1 1-1h1a100 100 0 0 0 6-3l2-1a89 89 0 0 0 4-2h1a89 89 0 0 0 5-3l1-1 2-1a118 118 0 0 0 37-45l1-1 1-1h1l1-2 1-1 1-1 3-2 1-1v-1l2-2a305 305 0 0 0 34-43l1-2 1-2a123 123 0 0 0 4-8v-1l1-2 1-2 1-2 1-2v-2l1-2 1-2v-2h1v-3h1v-2l5-18v-1l1-2v-1l1-3v-1h1v-3l1-27 1-8 1-27v-4l1-15-6 45Zm-114 88 24-16 7-4 2-1v-1h2a30 30 0 0 1 5-2c8-1 6 6 7 6v4c0 8 0 27-3 38v1l-2 5c-6 11-23 22-34 23h-1a13 13 0 0 1-3 0 21 21 0 0 1-2-1h-1a20 20 0 0 1-2 0v-1h-1l-3-1-1-1h-1a32 32 0 0 1-2-1l-1-1h-1l-3-3-1-1 4-9 2-4 3-1 3-1 4-1 1-1 5-2a7 7 0 0 0 2-2 19 19 0 0 0 1-2 54 54 0 0 0 3-6l4-7v-1a21 21 0 0 0 0-2l1-1 1-2v-2h1v-3l-8 3h-3a13 13 0 0 1-1 0l-1 1h-3a89 89 0 0 0-4 0Zm67-143h1l1 1 2 1 2 4-5-1h-5l-3-1-15-2-4-2 1-2h1l1-1h1l1-1h2a46 46 0 0 1 6 0l12 3 1 1Zm5 11 1 1a15 15 0 0 1-1 1l-1 1-6 2c-5 1-15-1-19-2h-1l-2-1h2l3-1 11-1-4-2-7-4a92 92 0 0 0 20 4l1 1 3 1Zm-141-21h1v1h1a4 4 0 0 1 1 2v2l-1 1 1 1 1 2h1v1h1v1a7 7 0 0 0 2 0 36 36 0 0 1 2 1h1l1 1h2l4 2h-1v1l-3 2h-1a25 25 0 0 1-5 0 115 115 0 0 1-9 0l-11-2-4-1 1-1v-1l1-1v-2a12 12 0 0 1 1 0v-3a2 2 0 0 0 0-1h-1l-15-3 2-2 2-1 17-1h2l5 1h1Zm-58 33 11-4a177 177 0 0 0 5 3h3a223 223 0 0 0 12 4l1 1h4l1 1a72 72 0 0 0 4 0h1l1 1h3l21-2-1 11v3a26 26 0 0 1-1 5h-1a241 241 0 0 1-31 28c-8 1-41-4-47-19-5-13 4-25 14-32Zm113-27h2v-1a10 10 0 0 1 2 0l1 1a17 17 0 0 1 4 1h2v1h1a923 923 0 0 0 0 2v12a448 448 0 0 0 2 23v1l1 2v2l1 1h1v2l8 7 1 1 3 3 1 1h1l1 1 1 1 1 1 1 1a18 18 0 0 0 1 1l1 1h1v1l1 1v8-1h1v1h1l1 1a56 56 0 0 1 3 2 16 16 0 0 1 2 2l1 1a8 8 0 0 1 1 1l1 2v1l1 1 3 6 1 4 1 1 1 2a127 127 0 0 1 1 4v1l2 4v1l1 2v1l-1 1v2a14 14 0 0 1-2 3v1h-1a13 13 0 0 1-1 2h-1c-2 1-5 3-8 3h-1l-1-1h-1l-11-2-7 3-10 2-21-4-20-6 11-3 11 1 8-1h2a42 42 0 0 0 4-1 3 3 0 0 0 1 0l1-2h1l6-8v-1a4927 4927 0 0 0 14-18l2-2v-1a96 96 0 0 0 0-1l-2 1-12-3-3-1-16 5h-3a39 39 0 0 1-7-1l-3-1h-2v-1h-3v-1h-1c-4-2-12-12-12-15v-6h1a69 69 0 0 0 1-5v-3l1-3 1-3 1-3v-1l2-5v-2l1-2 1-3 1-4 1-3 1-3v-1l1-3v-2l1-1 1-4 13-5Zm0 191 1 1 2 2-3-3Zm1-7v1a31 31 0 0 0-1 2l-1 2v1a63 63 0 0 1 2-6Zm25-38h-3a13 13 0 0 1-1 0 208 208 0 0 1-2 1h-2l-8 4-5 3h-22a138 138 0 0 1-16-1l-6 1c-1 1 4 7 4 7s-9 5-14 3c-4-1-9-4-13-7l12 16c10 8 47 3 55 3a68 68 0 0 0 4-1l-1 1 3-1 4-1 1-1 5-2a7 7 0 0 0 2-2 19 19 0 0 0 1-2 54 54 0 0 0 3-6l4-7v-1a21 21 0 0 0 0-2l1-1 1-2v-2h1v-3l-8 3Zm18-19h-2l-2 2-2 2 7-4h-1Zm25-114-7 3 11-1-4-2Zm-33 66-2 1-12-3-3-1-16 5h-3a39 39 0 0 1-7-1l-3-1h-2v-1h-3v-1h-1c-4-2-12-12-12-15v-6h1-2l-1-1h-5a18 18 0 0 0-2 0h-4l-1 1s-14 15-1 25h4a36 36 0 0 0 3 1l1-1h4a63 63 0 0 1 3 0h1l1 1h2a7 7 0 0 1 2 1l1 1h1a20 20 0 0 1 1 1l1 1 5 4a35 35 0 0 0 1 1h1a14 14 0 0 0 2 2 3 3 0 0 0 1 0h2l2 1h2l1-1h2l1-1h1l1-1h1l1-1a45 45 0 0 0 2-1v-1a22 22 0 0 1 2-1h1l1-1 1-1h5l2-1h1a48 48 0 0 1 2-1h2l1-1a344 344 0 0 0 4 0h1a17 17 0 0 0 3-1l2-1a96 96 0 0 0 0-1Zm-36 112 1 1 2 2-3-3Zm1-7v1a31 31 0 0 0-1 2l-1 2v1a63 63 0 0 1 2-6Zm25-38h-3a13 13 0 0 1-1 0 208 208 0 0 1-2 1h-2l-8 4-5 3h-22a138 138 0 0 1-16-1l-6 1c-1 1 4 7 4 7s-9 5-14 3c-4-1-9-4-13-7l12 16c10 8 47 3 55 3a68 68 0 0 0 4-1l-1 1 3-1 4-1 1-1 5-2a7 7 0 0 0 2-2 19 19 0 0 0 1-2 54 54 0 0 0 3-6l4-7v-1a21 21 0 0 0 0-2l1-1 1-2v-2h1v-3l-8 3Zm18-19h-2l-2 2-2 2 7-4h-1Zm25-114-7 3 11-1-4-2Zm-33 66-2 1-12-3-3-1-16 5h-3a39 39 0 0 1-7-1l-3-1h-2v-1h-3v-1h-1c-4-2-12-12-12-15v-6h1-2l-1-1h-5a18 18 0 0 0-2 0h-4l-1 1s-14 15-1 25h4a36 36 0 0 0 3 1l1-1h4a63 63 0 0 1 3 0h1l1 1h2a7 7 0 0 1 2 1l1 1h2v1l1 1 5 4a35 35 0 0 0 1 1h1a14 14 0 0 0 2 2 3 3 0 0 0 1 0h2l2 1h2l1-1h2l1-1h1l1-1h1l1-1a45 45 0 0 0 2-1v-1a22 22 0 0 1 2-1h1l1-1 1-1h5l2-1h1a48 48 0 0 1 2-1h2l1-1a344 344 0 0 0 4 0h1a17 17 0 0 0 3-1l2-1a96 96 0 0 0 0-1Zm-35 105v1a31 31 0 0 0-1 2l-1 2v1a63 63 0 0 1 2-6Zm-1 7 1 1 2 2-3-3Zm26-45h-3a13 13 0 0 1-1 0 208 208 0 0 1-2 1h-2l-8 4-5 3h-22a138 138 0 0 1-16-1l-6 1c-1 1 4 7 4 7s-9 5-14 3c-4-1-9-4-13-7l12 16c10 8 47 3 55 3a68 68 0 0 0 4-1l-1 1 3-1 4-1 1-1 5-2a7 7 0 0 0 2-2 19 19 0 0 0 1-2 54 54 0 0 0 3-6l4-7v-1a21 21 0 0 0 0-2l1-1 1-2v-2h1v-3l-8 3Zm18-19h-2l-2 2-2 2 7-4h-1Zm25-114-7 3 11-1-4-2Zm-33 66-2 1-12-3-3-1-16 5h-3a39 39 0 0 1-7-1l-3-1h-2v-1h-3v-1h-1c-4-2-12-12-12-15v-6h1-2l-1-1h-5a18 18 0 0 0-2 0h-4l-1 1s-14 15-1 25h4a36 36 0 0 0 3 1l1-1h6a15 15 0 0 1 1 0h1l1 1h2a7 7 0 0 1 2 1l1 1h2v1l1 1 5 4a35 35 0 0 0 1 1h1a14 14 0 0 0 2 2 3 3 0 0 0 1 0h2l2 1h2l1-1h2l1-1h1l1-1h1l1-1a45 45 0 0 0 2-1v-1a22 22 0 0 1 2-1h1l1-1 1-1h5l2-1h1a48 48 0 0 1 2-1h2l1-1a344 344 0 0 0 4 0h1a17 17 0 0 0 3-1l2-1a96 96 0 0 0 0-1Z" fill="#E3AC9C" />
		<path d="M399 334v1l-1 2 1-3ZM362 258v1-1Z" fill="#E3AC9C" />
		<path d="m460 345-1-1-2-1-3-1-3-1a63 63 0 0 1-7-2l-1-1h-2l-2-1a185 185 0 0 1-33-19l2 2 6 7 1 1v1h1l1 2 7 7 7 6 16 16c1 0 10 3 11 5v-1l2-19Zm-179-8h-1l-8 4c-2 1-15 5-27 6 9-1 38-5 42-7l9-10 15-20v-1c-3 5-26 27-30 28Zm38-80v-1h-1v-1a140 140 0 0 0-8-9l-2-2h-1a30 30 0 0 0-1-1l-15-8a47 47 0 0 1 14 18h1l6 1h2l5 3Zm-45-3h-5l-4 3a53 53 0 0 1 10-2 40 40 0 0 1 3-1l2-1 17-1h2c-9-1-19 1-25 2Zm7 83h-1l-8 4c-2 1-15 5-27 6 9-1 38-5 42-7l9-10 15-20v-1c-3 5-26 27-30 28Zm38-80v-1h-1v-1a140 140 0 0 0-8-9l-2-2h-1a30 30 0 0 0-1-1l-15-8a47 47 0 0 1 14 18h1l6 1h2l5 3Zm-45-3h-5l-4 3a53 53 0 0 1 10-2 40 40 0 0 1 3-1l2-1 17-1h2c-9-1-19 1-25 2Zm7 83h-1l-8 4c-2 1-15 5-27 6 9-1 38-5 42-7l9-10 15-20v-1c-3 5-26 27-30 28Zm38-80v-1h-1v-1a140 140 0 0 0-8-9l-2-2h-1a30 30 0 0 0-1-1l-15-8a47 47 0 0 1 14 18h1l6 1h2l5 3Zm-45-3h-5l-4 3a53 53 0 0 1 10-2 40 40 0 0 1 3-1l2-1 17-1h2c-9-1-19 1-25 2Zm7 83h-1l-8 4c-2 1-15 5-27 6 9-1 38-5 42-7l9-10 15-20v-1c-3 5-26 27-30 28Zm38-80v-1h-1v-1a140 140 0 0 0-8-9l-2-2h-1a30 30 0 0 0-1-1l-15-8a47 47 0 0 1 14 18h1l6 1h2l5 3Zm-45-3h-5l-4 3a53 53 0 0 1 10-2 40 40 0 0 1 3-1l2-1 17-1h2c-9-1-19 1-25 2Zm-8 117Zm171-5Zm34 33v-13l1-5c2-8 7-23 6-28l-5-6a64 64 0 0 0-6-1l-1-1h-3l-3-1h-1l-2-1-3-1-3-1a63 63 0 0 1-7-2l-1-1h-2l-2-1c-10-4-25-15-35-22l-6-4a56 56 0 0 1-2-2 34 34 0 0 0-4-2h-2a15 15 0 0 0-2-1h-1a38 38 0 0 0-10-1v1l8 7 1 1 3 3 1 1h1l1 1 1 1 1 1h1v1a18 18 0 0 0 1 1l1 1h1v1l1 1v2a16 16 0 0 1 0 3v3-1h1a7 7 0 0 0 0 1h1l1 1a56 56 0 0 1 3 2 16 16 0 0 1 2 2l1 1a8 8 0 0 1 1 1l1 2v1l1 1 3 6 1 4 1 1 1 2a127 127 0 0 1 1 4l2 5v1l1 2v1l-1 1v2a14 14 0 0 1-2 3v1h-1a13 13 0 0 1-1 2h-1c-2 1-5 3-8 3h-1l-1-1v2l2 1v-1h2a30 30 0 0 1 5-2c8-1 6 6 7 6v4l1 2v2l1 1v2l1 2v1l1 2v2l1 3 1 3 1 2v1l1 3v2c1 4-4 22-11 32a25 25 0 0 1-4 4v1h-1a8 8 0 0 1-1 1h-1a11 11 0 0 1-2 1 12 12 0 0 1-1 0 27 27 0 0 1-3 1h-3a61 61 0 0 1-9 0h-5l-3-1h-4a13 13 0 0 1-3 0 21 21 0 0 1-2-1h-1a20 20 0 0 1-2-1h-1l-3-1-1-1h-1l-1-1h-1l-1-1h-1v-1h-39a108 108 0 0 1-20 0c-8-1-27-33-27-44-1-11 8-20 8-20l4 11a101 101 0 0 0 21 33c10 8 47 3 55 2h6l4-1a14 14 0 0 0 1-1l5-2a7 7 0 0 0 2-2 19 19 0 0 0 1-2 54 54 0 0 0 3-6l4-7v-1a21 21 0 0 0 0-2l1-1 1-2v-2h1v-3l-8 3h-3a13 13 0 0 1-1 0 208 208 0 0 1-2 1h-2l-8 4-5 3h-22a138 138 0 0 1-15-1h-1a25 25 0 0 1-4-2 21 21 0 0 1-1 0c-5-2-10-6-15-11l-10-12 10 4 23 9-15-8-15-8-2-1-1-1h1l18-10h30l11 1 8-1h2a42 42 0 0 0 4-1 3 3 0 0 0 1 0l1-2h1l6-8v-1l13-17 1-1 2-2v-1l-7 2h-1l-5 2-3 1h-2a54 54 0 0 1-10-1c-3 0-5-2-8-3a39 39 0 0 1-7-1l-3-1h-1l-1-1h-3a50 50 0 0 0-13 1l-10 2a44 44 0 0 0-2 0h-5v-1a7 7 0 0 1-1-1 35 35 0 0 1-3-4v-3h-1v-4h1a19 19 0 0 1 0-2v-2a17 17 0 0 1 2-3v-1l1-1v-1h1l1-1a7 7 0 0 1 2-1l1-1h4a8 8 0 0 1 1 0h2a20 20 0 0 1 2 0h2l1 1a12 12 0 0 1 2 0 69 69 0 0 0 1-5v-3l1-3 1-3 1-3v-1l2-5a86 86 0 0 1 2-7l1-4 1-3 1-3v-1l1-3v-2l1-1 1-4-2-13c0-2-10-16-14-20h-1l-18-9-7-3h-1l-3-1a473 473 0 0 0-33-2h-2l-3 1h-1l-2 1-4 1h-1l-7 2h-4a230 230 0 0 1-6-54l3-5 6-8 20-23-12 3-6 5a593 593 0 0 0-6 9l-1 2-1 1-2 2v1l-2 2-1 2-2 3v1l-1 1-5 8-2 3-6 8v1l-1 1v1l-4 31-1 12-2 26-1 10-3 25v10l-1 4v1a104 104 0 0 1 0 3v8l-1 2v18l4 37 5 20 7 27v1l1 1v1l6 13h-1l-3 9-7 17a37 37 0 0 1-5 13l-1 1v1l-2 1a5 5 0 0 0 0 1l2 3v1h1v1l1 2v1h1a243 243 0 0 1 8 17l1 2 1 2 1 2 2 4 1 1 3 6 1 2 4 7v1l6 10v1a95 95 0 0 0 1 2h1v2h1a209 209 0 0 0 4 7v1h1v1h1v1h1v1a19 19 0 0 0 1 1h1l1 1h1l2 1h1l1 1h1a114 114 0 0 0 2 1h1v1h2v1h1a114 114 0 0 1 4 2 59 59 0 0 1 6 3v1a96 96 0 0 1 2 1l1 1 2 1a51 51 0 0 1 1 1h1v1h1l1 1h1v1h1l25 9c5 2 34 31 36 30l4-4 2-2 1-1 1-3 1-1 1-2 1-1a74 74 0 0 0 2-4 114 114 0 0 1 11-18l2-2v-1l1-1a197 197 0 0 1 4-4l1-2 1-2h1l1-2v-1h1v-1h1s10-36 18-51l1-3 1-1v-2l1-2h1v-2l-3 8-1 2-18 34-1 1-1 2h-1v1a27 27 0 0 1-1 1l-1 1-1 1-1 1v1h-1v1l-2 2h-1v1h-1a84 84 0 0 1-9 7l-1 1a32 32 0 0 1-4 2l-1 1h-1a51 51 0 0 1-10 4l-1 1h-3v1h-2a19 19 0 0 1-3 0h-11l-1-1h-4a21 21 0 0 1-2-1c-18-6-34-19-34-19 6 0 32-16 42-18l18-4h-2a45 45 0 0 1-3 0h-5l-10-3h-1l-2-1h-1l-3-1-2-1h-1l-1-1h-2l-1-1h-1a66 66 0 0 1-2-1l-1-1h-2v-1l16-4c5-1 33 0 47-6h1a47 47 0 0 0 1-1h2v-1h1l1-1a6 6 0 0 0 1 0v-1h1l1-1a54 54 0 0 0 2-1h1l1-2h1a201 201 0 0 0 4-3l1-1 1-1 1-1a12 12 0 0 0 1-1h1l1-1a44 44 0 0 0 2-2l3-2 2-2 1-1h1v-1h1v-1l2-1 1-1 1-1 1-1 1-1h1l1-2h1v-1l2-1 1-1a5 5 0 0 1 0-1h1l1-1 1-1 1-1h1v-1l1-1 1-1h1l1-2 1-1 1-1 3-2 1-1v-1l2-2a305 305 0 0 0 16-18l2-2a218 218 0 0 0 16-23l1-2 1-2a123 123 0 0 0 4-8v-1l1-2 1-2 1-2 1-2 1-2v-2a138 138 0 0 0 1-4l-9 11Zm-34-33v1h1l1 1a22 22 0 0 1 2 3v2a16 16 0 0 1 0 3l-1 1-3 11c-2-1-3-3-3-5l2-9v-1l-1-1-1-1h-1v-1l-3-3a11 11 0 0 1-1-1v-2l8 2Zm-173 3 1-1 1-1 1-1a8 8 0 0 0 0 1l-1 1a42 42 0 0 0 0 2v2a22 22 0 0 0 0 3v1l1 1v1a12 12 0 0 0 0 1 179 179 0 0 0 4 15l-2 8-9-5c-2-2-4-10-5-15 0-3 5-9 9-13Zm-14-142c4-2 15-3 27 1h1l1 1h1a72 72 0 0 1 7 3h1l2 2 1 1a47 47 0 0 1 14 18h1v1h1a4 4 0 0 1 1 2v2l-1 1 1 1 1 2h1v1h1v1a7 7 0 0 0 2 0 36 36 0 0 1 2 1h1l1 1h2l4 2h-1v1l-3 2h-1a25 25 0 0 1-5 0 115 115 0 0 1-9 0l-11-2-4-1 1-1v-1l1-1v-2a12 12 0 0 1 1 0v-3a2 2 0 0 0 0-1h-1l-15-3 2-2 2-1 17-1h2c-9-1-19 1-25 2h-2l-4-1-25-4c-2-1 3-20 7-22Zm-3 59 11-4a177 177 0 0 0 5 3h3a223 223 0 0 0 12 4l1 1h4l1 1a72 72 0 0 0 4 0h1l1 1h3l21-2-1 11v3a26 26 0 0 1-1 5h-1a241 241 0 0 1-31 28l-8 4c-2 1-15 5-27 6-10 0-19-1-22-9l-1-10c0-14 6-32 25-42Zm207 110c-1 4-10 9-10 9l1-18 1-4a169 169 0 0 0 1-7 43 43 0 0 0 1-12v-2l-1-1v-1c1 0 10 3 11 5l-1 17-3 14Zm-188-25Zm8-117h-5l-4 3a53 53 0 0 1 10-2 40 40 0 0 1 3-1l2-1 17-1h2c-9-1-19 1-25 2Zm45 3v-1h-1v-1a140 140 0 0 0-8-9l-2-2h-1a30 30 0 0 0-1-1l-15-8a47 47 0 0 1 14 18h1l6 1h2l5 3Zm-38 80h-1l-8 4c-2 1-15 5-27 6 9-1 38-5 42-7l9-10 15-20v-1c-3 5-26 27-30 28Zm-7-83h-5l-4 3a53 53 0 0 1 10-2 40 40 0 0 1 3-1l2-1 17-1h2c-9-1-19 1-25 2Zm45 3v-1h-1v-1a140 140 0 0 0-8-9l-2-2h-1a30 30 0 0 0-1-1l-15-8a47 47 0 0 1 14 18h1l6 1h2l5 3Zm-38 80h-1l-8 4c-2 1-15 5-27 6 9-1 38-5 42-7l9-10 15-20v-1c-3 5-26 27-30 28Zm-7-83h-5l-4 3a53 53 0 0 1 10-2 40 40 0 0 1 3-1l2-1 17-1h2c-9-1-19 1-25 2Zm45 3v-1h-1v-1a140 140 0 0 0-8-9l-2-2h-1a30 30 0 0 0-1-1l-15-8a47 47 0 0 1 14 18h1l6 1h2l5 3Zm-38 80h-1l-8 4c-2 1-15 5-27 6 9-1 38-5 42-7l9-10 15-20v-1c-3 5-26 27-30 28Z" fill="#E3AC9C" />
		<path d="m306 254-7-2 5 1h1l1 1ZM473 277s-15 2-18 1l-11-5h-1l-2-1-8-1-4 1-7 3-2 1h-2l-12-3h-3l1 1c1 1 5 5 14 8l12 6-10 1a55 55 0 0 0 13 6l4 1a111 111 0 0 1-45-6c-10-5-18-12-20-15v-14s-5-3-10-3v1h-2l-13 5-10 2c-1 0-6-5-9-11l-17-28c-1-2 0-4 1-5l18 8c8 4 26 4 36 4l26-4 2-1 10-2a115 115 0 0 1 47 3l7 4-8 2-13 3s-7 2-15 8-10 13-10 13h2l5-1h1l-4 2-1 2 4 2 15 2a413 413 0 0 0 13 2l-2-4-5-3-12-3 6 1c10 0 25 9 28 10l11 7Z" fill="#E3AC9C" />
		<path d="m394 287-2 3s-9 2-10 4c-2 1-4 10-5 11l-2-4a165 165 0 0 1-3-29l22 15Z" fill="url(#D)" />
		<path d="M327 265c0-1-6-10-21-11-16-2-39 0-48 5 0 0 0-5 17-7 16-2 46-3 52 13ZM452 268s-13-9-30-8c-17 0-25 4-29 7 0 0-1-6 23-8s36 6 36 9ZM312 278l-17 5c-11 2-37 0-42-3 0 0 16 3 30 3 13-1 27-5 29-5Z" fill="#C88179" />
		<path d="M324 269h-32l-14-3c-7 0-11-2-11-2l20-3 27 4 10 4ZM442 272s-11 4-22 5c-10 0-19-4-22-5h-4l18-3c3 0 24-4 30 3Z" fill="#C88179" />
		<path d="m421 288 11-1 10-2 7-6-5-7 17 5s-2 8-8 10c-5 2-19 3-19 3l-11-1-2-1Z" fill="#E3AC9C" />
		<path d="M453 287c-2 1-12 4-27 3-15-2-34-10-35-11 37 13 51 6 51 6-3 4-18 4-18 4 12 1 29-2 29-2ZM344 348l-12-5h-8c-3 0-13-4-14-10s1-17 8-18c0 0-14 15-1 25l10 1c5 1 13 2 17 7Z" fill="#C88179" />
		<path d="M400 332c-1 9-7 9-10 10l-19 5c-3 1-10 8-17 8-7 1-13-6-13-7 0 1 5 5 11 5 6 1 11-2 19-7 7-4 12-5 19-5 7-1 8-5 9-11 1-5-3-10-4-10 4 1 6 4 5 12ZM267 379s-4-6-2-10c1-3 4-5 4-5s-3 9-2 15ZM301 382l-7 2h-9l-3-3s0-2 3-2c2-1 9 2 10 2l6 1ZM425 383l-4 5-2-3-4-1h-10l2-2 4-1s10-3 11-2l3 4ZM441 376v-5l-4-5s3 0 5 3c1 2-1 7-1 7Z" fill="#C88179" />
		<path d="M332 321v9l-6-6c-2-3-2-7-5-9-2-2-5-2-5-2l17-4 1 1c-2 5-2 10-2 11Z" fill="#E3AC9C" />
		<path d="M198 310v-1l-1-7h1l4 8-1 7-3-7ZM201 274l-2 8-1-9 1-12-1-1-4-12c1 0 9 4 10 8 1 2-1 11-3 18ZM205 314v2a900 900 0 0 1-3 28v-1l-1-1a18 18 0 0 1-1-2v-3a6 6 0 0 0 2-3v-2a183 183 0 0 0 1-16 7 7 0 0 1 2-2ZM210 266l-2 25-1 9v6l-1 4-6-11c-1-2 0-10 3-14l1-1c4-4 6-17 6-18ZM511 264a37 37 0 0 1-2 10l-1-3c-3 1-7 4-6 6l3 20-1 9-1 1-6 18-2-4c0-1 8-11 8-19 0-9-5-28-5-28l-2 2v-1c3-2 10-11 14-12l1 1Z" fill="#C88179" />
		<path d="m496 312-5 8v-3l1-17a219 219 0 0 1 1-7 241 241 0 0 0 3 19ZM500 343c-1 4-4 7-4 7-2 6-7 7-7 7v-3h2v-1l3-2a32 32 0 0 1 6-8ZM337 247l-30-11s-42-13-46-13h-7l1-4s12-7 18-8h8s45 12 51 21c5 9 5 15 5 15ZM461 233l-13 3c-4-1-25 5-25 5l-28 7h-7v-6s2-12 6-14c4-1 40-4 50-3s17 8 17 8Z" fill="#C88179" />
		<path d="m368 360 1 5 1 1v2h1l1 3-5 1h-2l-8 1-11-1h-6a129 129 0 0 1-21-11 81 81 0 0 1-6-24c1 2 3 3 5 3l3 1 9 1c2 0 11 2 14 6 3 5 9 7 11 6l9-3 14-7 2-1a427 427 0 0 1 16-4c-1 1-27 18-28 21Z" fill="url(#E)" />
		<path d="m288 260-2 3-3 2-18 3-15-2-9-2s7-4 10-4l16-7h14l-6 1c-3 0-11 4-11 4a116 116 0 0 0 5 1l13-1h1l5 2ZM326 270l-4-2-3-1-1-1h-1l-4-2-2-1h-1l-3-4 1-1c0-1 0-4-3-5l10 2 6 3 6 7c1 2 0 4-1 5Z" fill="#C88179" />
		<path d="m328 277-2 3c-3 3-8 8-12 10l-21 2c-6 0-16-3-23-5h17c6-1 12-4 14-6h1a114 114 0 0 1-32 2l-17-3-9-8-3-8a313 313 0 0 0 48 0h2v1l-1 1h-12l-10 4a54 54 0 0 0 20 7h1c6 0 17-4 23-6a115 115 0 0 0 7 0l6 1-2-4 2 2 3 7Z" fill="url(#F)" />
		<path d="m301 386-16 2-10 2-6-5-2-6-1-8 4 7c2 1 10-4 14-5l3-1 11 10h-1l3 2 1 2Z" fill="url(#G)" />
		<path d="m330 400-23-9 8 1 15 8Z" fill="#C88179" />
		<path opacity=".5" d="m394 402-1 5c-4 4-14 8-17 9h-1l-1 1c-1 1-1 15-4 17l-5 1c-8 0-45 5-55-3l-12-16c4 3 9 6 13 7 5 2 14-3 14-3l-8-7-10-14c5 5 10 9 15 11l5 2c15 3 38 1 38 1l5-3 8-4h2a18 18 0 0 0 2-1 9 9 0 0 0 1 0h3l8-3ZM446 383l-5-5-1-1 1-1v-6l-4-4-8-2v2a5 5 0 0 0 1 1c2 2 6 5 6 7l-2 9-3 38-2-3-8-26v-2a33 33 0 0 0 0-2c-1 0 1-7-7-6a6 6 0 0 0-2 0 15 15 0 0 0-2 1 30 30 0 0 0-3 2l-2-1v-2 1h2c3 0 6-2 8-3s5-5 6-9v-1l-6-15-1-4-5-10-7-6-2-1v-1h-1v1-6a10 10 0 0 0 0-2l-1-1v-1l-2-1-1-3-1-8-7-6 9 3 8 6a588 588 0 0 1 20 23l7 6a6725 6725 0 0 0 16 17c3 6 0 16-1 22ZM472 381l-10 13-5-12 1-17v-1l2-19-1-1h1l3 1h3l1 1a246 246 0 0 1 6 1l5 6c1 5-4 20-6 28ZM408 263l5-3-2 1a52 52 0 0 0-3 0h-1l-2 1h-3l-1 1-2 1h-2l-2 1v1h-1a48 48 0 0 0-1 1v4h-2l4 6 8-3h1l-1-1h3l-3-1-3-1h2-1l1-1h1a62 62 0 0 1 4-1h1a5 5 0 0 0 1-1 40 40 0 0 0 4-3l-5-2Zm0 0 5-3-2 1a52 52 0 0 0-3 0h-1l-2 1h-3l-1 1-2 1h-2l-2 1v1h-1a48 48 0 0 0-1 1v4h-2l4 6 8-3h1l-1-1h3l-3-1-3-1h2-1l1-1h1a62 62 0 0 1 4-1h1a5 5 0 0 0 1-1 40 40 0 0 0 4-3l-5-2Zm0 0 5-3-2 1a52 52 0 0 0-3 0h-1l-2 1h-3l-1 1-2 1h-2l-2 1v1h-1a48 48 0 0 0-1 1v4h-2l4 6 8-3h1l-1-1h3l-3-1-3-1h2-1l1-1h1a62 62 0 0 1 4-1h1a5 5 0 0 0 1-1 40 40 0 0 0 4-3l-5-2Zm0 0 5-3-2 1a52 52 0 0 0-3 0h-1l-2 1h-3l-1 1-2 1h-2l-2 1v1h-1a48 48 0 0 0-1 1v4h-2l4 6 8-3h1l-1-1h3l-3-1-3-1h2-1l1-1h1a62 62 0 0 1 4-1h1a5 5 0 0 0 1-1 40 40 0 0 0 4-3l-5-2Zm31-36a29 29 0 0 0-2 0h-2a100 100 0 0 0-10-1h-2a128 128 0 0 0-4 0h-5a79 79 0 0 0-10 1l-6 1-1 1h-3l-2 1c-7 3-20 31-20 31a923 923 0 0 0 0 2v12h1v1l1 1 1 1 1 1 1 1h1v1l1 1h1v1h1l1 1 1 1h1l1 1 1 1a22 22 0 0 0 2 1 100 100 0 0 0 6 3l3 1h2l1 1h3l2 1h3a87 87 0 0 0 6 1h1l3 1h19l-4-1-7-3-17-4-1-1h-1l-3-2-1-1h-1l-2-2-5-5 8-3h1l2-1-3-1-3-1h2l1-1a62 62 0 0 1 4-1h1l1-1a40 40 0 0 0 4-3l-5-2 5-3h1-2v-1h1l1-2v-2h1v-1a90 90 0 0 1 3-3v-1h1v-1a28 28 0 0 1 3-2c8-6 15-8 15-8l13-3 1-1a9 9 0 0 0 0-1v-1l-12-6Zm-48 44a57 57 0 0 0-5 2v1c-2 0-3 1-3 2h-1l-3-8 14-1v4h-2Zm17-8 5-3-2 1a52 52 0 0 0-3 0h-1l-2 1h-3l-1 1-2 1h-2l-2 1v1h-1a48 48 0 0 0-1 1v4h-2l4 6 8-3h1l-1-1h3l-3-1-3-1h2-1l1-1h1a62 62 0 0 1 4-1h1a5 5 0 0 0 1-1 40 40 0 0 0 4-3l-5-2Zm0 0 5-3-2 1a52 52 0 0 0-3 0h-1l-2 1h-3l-1 1-2 1h-2l-2 1v1h-1a48 48 0 0 0-1 1v4h-2l4 6 8-3h1l-1-1h3l-3-1-3-1h2-1l1-1h1a62 62 0 0 1 4-1h1a5 5 0 0 0 1-1 40 40 0 0 0 4-3l-5-2Zm0 0 5-3-2 1a52 52 0 0 0-3 0h-1l-2 1h-3l-1 1-2 1h-2l-2 1v1h-1a48 48 0 0 0-1 1v4h-2l4 6 8-3h1l-1-1h3l-3-1-3-1h2-1l1-1h1a62 62 0 0 1 4-1h1a5 5 0 0 0 1-1 40 40 0 0 0 4-3l-5-2Z" fill="#C88179" />
		<path opacity=".5" d="m473 277-12 1h-6l-11-5h-1l-2-1a16 16 0 0 0-4-4h1a578 578 0 0 0 9 1l-2-4-5-3-12-3 6 1c10 0 25 9 28 10l11 7ZM418 454c-1 1-10 19-38 25-29 6-51 10-77-4-27-13-31-25-31-25l8 3a149 149 0 0 0 28 0l16-1a489 489 0 0 1 49 5v1a20 20 0 0 0 2 0 27 27 0 0 0 5 1h2c7 1 23 3 31-2l3-3h2Z" fill="#C88179" />
		<path d="M461 278h-6l-11-5-2-2-4-3a578 578 0 0 0 9 1l-2-4-5-3-12-3 6 1c10 0 25 9 28 10l11 7-21-6 9 7ZM451 233l-1 3-13 3s-7 2-15 8c-7 5-9 11-10 13h2l-6 3 5 2-2 2-4 2-4 1-9 1h-1v-4l-14 1-6 7h-1v-14s13-28 20-31l2-1 10-2c12-2 26-1 35 0l12 6Z" fill="#C88179" />
		<path d="m426 292-20-4-12-6-12-6 5-3a52 52 0 0 1 6-2v-1h5l4 1 6 1-2 1a29 29 0 0 0-3 1l-8 3 5 5 9 6 17 4ZM345 251c0-2-10-16-14-20h-1l-18-9-7-3h-1l-3-1a473 473 0 0 0-33-2l9 11 1 1 1 1h1a72 72 0 0 1 7 3h1l2 2 1 1a254 254 0 0 1 16 9h1l2 2a11 11 0 0 1 1 1 762 762 0 0 1 7 8 6 6 0 0 1 1 1 7 7 0 0 0 0 1l-5-3h-2l-6-1v1h1a4 4 0 0 1 1 2v2l-1 1 1 1 1 2h1v1h1v1a7 7 0 0 0 2 0 36 36 0 0 1 2 1h1a41 41 0 0 1 3 1l4 2v1l2 3-3-1h-4a25 25 0 0 1-5 0 115 115 0 0 1-2 1h-2l-11 5-2 1-1 1a133 133 0 0 1-7 3h-1a6 6 0 0 1-1 0l-3 1h-8 12a192 192 0 0 0 13-1l1-1 9-3h1l6-2 9 3 1 1 4 8 8-6 2-2 3-5v-1l1-3v-2l1-1 1-4-2-13Zm-19 19h-1v-1l-2-9 1 1 1 1h1l6 5 2 6-8-3Z" fill="#C88179" />
		<path d="M333 315a21 21 0 0 0-15 0c-7 3-9 14-7 19l-6 5-16 9 1-7 6-11a590 590 0 0 0 15-21c3-2 6-4 9-4 3-1 5 0 6 1 5 2 7 9 7 9Z" fill="url(#H)" />
		<path d="M363 352s-9 6-15 5l-12-4a193 193 0 0 1-18-12l-1-1-3-2-1-2s2 3 5 4l2 1 4 2a225 225 0 0 0 6 1l11 4 8 6h8l6-2Z" fill="#C88179" />
		<path d="m372 371-5 1-8-1-14-4s7-3 10-2l7 1 2-8c0-2 2-2 2-2a931 931 0 0 0 3 9l1 1v2h1l1 3Z" fill="url(#I)" />
		<path d="m291 357-2 2c-1 2-20 8-21 10l-2 2 1-5-1 1c1-1 1-3 3-3 4-3 17-6 22-7Z" fill="url(#J)" />
		<path d="m301 386-16 2-7 1-3 1-6-5-2-6-1-8 4 7v1c2 1 11 3 12 2l2-8 3-1 11 10h-1l3 2 1 2ZM383 410s-3 4-7 6h-1l-1 1c-5 3-37 8-49 3 0 0-5-6-4-7l6-1c15 3 38 1 38 1l5-3h13ZM440 377l1-1v-6l-4-4-10-12v-1l-5-4-10-8-10-6-2-2h-1v-5a10 10 0 0 0 0-2l-1-1v-1l-2-1-1-3 5 1 17 10 7 7 7 6 16 16c2 10-7 17-7 17Z" fill="#C88179" />
		<path d="m434 383-5 9-1 1-4 1-3-3v-1a33 33 0 0 0 0-2c-1 0 1-7-7-6a6 6 0 0 0-2 0 15 15 0 0 0-2 1 30 30 0 0 0-3 2l-2-1v-2 1h2c3 0 6-2 8-3s5-5 6-9l3 1 6 7-1-9-4-4a23 23 0 0 0 5 1c2 2 6 5 6 7l-2 9ZM467 373l-8 11-2-2 1-17v-1l5-6 3-2 1 17ZM426 468a41 41 0 0 1-7 7 546 546 0 0 1-34 29l-3 2-1 1-2 1-1 1h-1a16 16 0 0 1-1 1l-2 1-3 1c-14 6-42 5-47 6l-16 4v1a171 171 0 0 0 4 1l2 1 14 5c3 1 11 0 25-2 12-2 24-7 32-11l-2 1a84 84 0 0 1-7 4 43 43 0 0 1-4 2l-2 1a79 79 0 0 1-6 3h-1l-1 1-5 1h-2a101 101 0 0 1-6 2h-2a83 83 0 0 1-9 1h4a57 57 0 0 0 3 0h3l-5 1c-4 0-10 0-19-2h-2l-2-1h-3l-2-1h-3l-1-1h-2a118 118 0 0 1-21-9 122 122 0 0 1-30-30l-10-16-10-17-2-5 18 10 5 5 6 5a125 125 0 0 0 70 25h1c37 0 54-19 55-20l-26 8c-5 1-19 2-38-2 13 3 27 2 38 1 16-3 28-10 34-14h2l2-2c3-1 13-13 17-17l-10 20s12-1 16-3ZM242 368s-8 3-10 1l-4-21a3211 3211 0 0 1 11 1l3 19ZM387 563s10-35 18-51l1-3v1l-20 36c-5 9-26 30-49 30-5 1-10-1-15-2l-2-1c-11 2-29 4-31 3 11 2 27 5 39 5 20 0 46-11 46-11l-2 12 15-19ZM259 559a106 106 0 0 1-6-3c-3-2-16-26-27-47l-16-32s4-2 7-12l1-4a810 810 0 0 0 30 73l3 5c4 7 6 14 8 20Z" fill="#C88179" />
		<path opacity=".5" d="m421 449-1 2a52 52 0 0 0-4 3l-3 4-1 1-1 1a211 211 0 0 1-7 7v1h-1l-4 2a124 124 0 0 0-3 2l-1 1a126 126 0 0 1-11 5l-2 1a47 47 0 0 1-5 2h-1a93 93 0 0 1-4 1h-2v1a41 41 0 0 1-5 1h-7l-1 1h-13a112 112 0 0 1-10-1h-7v-1l-17-4a64 64 0 0 1-12-6l-1-1-1-1-4-3h-1v-1l-2-1a142 142 0 0 1-16-17l-21-41-6-10c-3-7-4-30-4-30 9 3 18 2 22 1l1-1 1-1 1-1a8 8 0 0 0 0 1l-1 1a42 42 0 0 0 0 2v1l1-1v-1h1c1-2 20-8 21-10l2-2 7-11 7-7a176 176 0 0 1 6-5v-2l-1-1v-4h1a19 19 0 0 1 0-2v-1a21 21 0 0 1 2-4v-1l1-1v-1h1l1-1h1l1-1 1-1h4a8 8 0 0 1 1 0h2a20 20 0 0 1 2 0h2l1 1a12 12 0 0 1 2 0 69 69 0 0 0 1-5v-3l1-3 1-3 1-3v-1a1042 1042 0 0 1 2-7l1-2 1-3 1-3v-1l1-3 1-3v-1l1-3v-2l1-1 1-4-2-13c0-2-10-16-14-20h-1l-18-9-7-3h-1l-3-1a473 473 0 0 0-33-2h-1a38 38 0 0 0-4 1h-1l-2 1v2l14 6 3 2h1l1 1h1a72 72 0 0 1 7 3h1l2 2 1 1a254 254 0 0 1 16 9h1a81 81 0 0 1 3 3 762 762 0 0 1 7 8 6 6 0 0 1 1 1 4 4 0 0 1 0 1l-5-3h-2l-6-1v1h1v1a4 4 0 0 1 1 1v2l-1 1 1 1 1 2h1v1h1v1a7 7 0 0 0 2 0 36 36 0 0 1 2 1h1l1 1h2l4 2v1l2 3-3-1h-4a25 25 0 0 1-5 0 115 115 0 0 1-2 1h-3a10 10 0 0 1 0 1 33 33 0 0 1-2 0h-1v1h-2l-2 1h-1l-3 1h-1a48 48 0 0 1-5 1h-3a97 97 0 0 1-22-2l-12-2a56 56 0 0 0 19 10 21 21 0 0 0 5 0h3a102 102 0 0 0 12-1l8-1 25-1 1-1-7 19-8 11h-1v1a590 590 0 0 1-24 30c-4 2-33 6-42 7-10 0-19-1-22-9l-1-10-4-39c0-5-5-16-6-21v-1c-1-3 0-6 1-9v-2 2l-2 6-3 25v9l-1 5v1a104 104 0 0 1 0 3v7l-1 1v2a349 349 0 0 1 0 18 117 117 0 0 0 4 15c3 4 17 15 21 18l2 3c2 3 4 30 3 30 0 0-3 0-5-2-5-1-12-4-16-7l7 27v1a420 420 0 0 1-7 52 26 26 0 0 1-2 2 18 18 0 0 1-1 2l-2 1a5 5 0 0 0 0 1l2 3v1h1v1l1 2v1h1a243 243 0 0 1 7 15l1 2 1 2 1 2 1 2 2 4 1 1 3 6 1 2 4 7v1l6 10v1a95 95 0 0 0 2 2v1l1 1a209 209 0 0 0 4 7v1h1v1h1v1a7 7 0 0 0 1 1 19 19 0 0 0 1 1h2l1 1 2 1h1a105 105 0 0 1 4 2h1v1h2v1h1a114 114 0 0 1 4 2l2 1 2 1 2 1v1l2 1 1 1 2 1 1 1h1v1h1l1 1h1v1h2l3 1 3 1h4a344 344 0 0 0 14 2h6l2 1h2a104 104 0 0 0 8 0h1l1-1h1a80 80 0 0 0 7 0v-1h5l1-1h2l2-1h1a46 46 0 0 0 2 0l2-1h1l4-1a27 27 0 0 0 3-1l2-1h1l3-1v-1h2l1-1-2 12 2-3 2-2a44 44 0 0 1 1-1v-1a197 197 0 0 1 4-4v-2h1l1-2h1v-1l1-1v-1h1v-1h1s10-36 18-51l1-3v1l-2 2-18 34v1l-2 2v1a27 27 0 0 1-1 1l-1 1-1 1-1 1v1h-1v1l-2 2h-1v1h-1a84 84 0 0 1-14 10l-1 1h-1a51 51 0 0 1-10 4l-1 1h-3v1a32 32 0 0 1-2 0 19 19 0 0 1-3 0h-8a8 8 0 0 1-1 0h-2l-1-1h-4a21 21 0 0 1-2-1h-1l-1-1c-21-4-57-21-69-34v-1h-1l-1-1v-1l-1-2c-5-13-1-44-1-44a178 178 0 0 0 49 34 179 179 0 0 0 13 5h4l2 1 2 1h3l2 1h2c9 2 15 2 19 2l5-1h-2a45 45 0 0 1-3 0h-5l2-1h3a60 60 0 0 0 4 0h2l4-1h1a133 133 0 0 0 16-6l2-1a89 89 0 0 0 4-2h1a89 89 0 0 0 5-3l1-1 2-1c-8 4-20 9-32 11-14 2-22 3-25 2a89 89 0 0 0 19-6l24-12h1a38 38 0 0 0 1-1h2v-1h1l1-1h1v-1h1l1-1a54 54 0 0 0 2-1l2-2h1a201 201 0 0 0 4-3l1-1 1-1 1-1a12 12 0 0 0 1-1h1l1-1a19 19 0 0 0 1-1l1-1 3-2 2-2a17 17 0 0 0 1-1h1v-1h1v-1l2-1 1-1 1-1 1-1 1-1h1l1-2h1v-1l2-1 1-1v-1h1l1-1 1-1 1-1h1v-1l1-1 1-1a19 19 0 0 0 2-2c12-13 27-44 27-44l-32 25Zm-98-189 1 1 1 1h1l6 5 2 6-8-3-1-1-2-9Z" fill="#C88179" />
		<path d="m356 130-9 7c-5 4-26 8-36 14-11 6-27 16-30 16-4 1-18-3-29-5-7-1-14 0-19 1h-4l5-2 52-28a204 204 0 0 1 70-3Z" fill="#E3AC9C" />
		<path d="M491 202s-2 0-5-4-8-41-22-53l-6-5c-9-9-34-25-47-25-6 0-18 5-29 10-16 5-30 14-37 14-10 1-27-4-36-5-8-1-35 17-40 19-5 3-25 8-29 13-3 5-13 38-13 38l-9 16-3-4c-7-9-18-23-16-29 1-5 5-21 19-38 9-10 23-21 44-28 32-10 64-22 95-28l28-2s53 9 57 12c5 3 21 19 28 28 7 10 21 71 21 71Z" fill="#C88179" />
		<path d="m375 344-11 7c-6 3-9 2-12 1-4 0-11-10-16-11h-16l-1-1 16-3h2c14 0 16 10 20 10 4 1 18-3 18-3Z" fill="url(#K)" />
		<path d="M327 265c0-1-6-10-21-11-16-2-39 0-48 5 0 0 0-5 17-7 16-2 46-3 52 13ZM452 268s-13-9-30-8c-17 0-25 4-29 7 0 0-1-6 23-8s36 6 36 9ZM344 348l-12-5h-8l-9-3-5-7c-1-6 1-17 8-18 0 0-14 15-1 25l10 1c5 1 13 2 17 7Z" fill="#965754" />
		<path d="M400 332c-1 9-7 9-10 10h-1l-4 1-14 4-1 1c-4 2-10 7-16 7-7 1-13-6-13-7 0 1 5 5 11 5 6 1 11-2 18-7h1c6-4 11-5 17-5h2c7-1 8-5 9-11 1-5-3-10-4-10 4 1 6 4 5 12ZM295 381l6 1-7 2h-9l-3-3s0-2 3-2c2-1 9 2 10 2ZM425 383l-4 5-2-3-4-1h-10l2-2 4-1s10-3 11-2l3 4ZM269 364s-3 9-2 15c0 0-4-6-2-10 1-3 4-5 4-5ZM441 376v-5l-4-5s3 0 5 3c1 2-1 7-1 7ZM332 232c5 9 5 15 5 15l-30-11s-42-13-46-13h-7l1-4s12-7 18-8h8s45 12 51 21ZM461 233l-13 3c-4-1-25 5-25 5l-28 7h-7v-6s2-12 6-14c4-1 40-4 50-3s17 8 17 8ZM326 270l-7-3-6-3a58 58 0 0 1-4-2l-2-4h1c2 0 7-2 8-1l5 1 6 7c1 2 0 4-1 5Z" fill="#965754" />
		<path d="m347 264-1 4-1 1v2a397 397 0 0 1-1 4l-3 5-2 2 1-13-15-8a40 40 0 0 1-6-5l-3-11 22 9 9 10Z" fill="url(#L)" />
		<path d="M324 269h-32l-14-3c-7 0-11-2-11-2l20-3 27 4 10 4ZM408 263l5 2-2 2-17 4-1-1v-3l3-3a252 252 0 0 1 16-4h2l-6 3Z" fill="#965754" />
		<path d="m412 260-12 6-7 2v-1l-14 1-1-6 13-8c3 0 10 4 11 4l10 2Z" fill="url(#M)" />
		<path d="M424 289s15 0 18-4c0 0-12 6-42-3l-5-5-4-6-4 2 4 6 3 3 12 6 20 4-17-4-7-4 24 6c15 1 25-2 27-3 0 0-17 3-29 2Z" fill="url(#N)" />
		<path d="M319 271h-1a25 25 0 0 1-5 0h-1a127 127 0 0 1-23 6h-1a97 97 0 0 1-22-2l19 4 13-2-12 5-3 1c-14 0-30-3-30-3 5 3 31 5 42 3l17-5 9-7h1-3Z" fill="url(#O)" />
		<path d="m286 263-3 2-18 3-15-2c4-4 12-11 16-12l2-1h8-1l-6 1-8 5 7-1 1 1 13-1h1l-2 2 5 3Z" fill="#965754" />
		<path d="m428 393-4 1-3-3v-1a33 33 0 0 0 0-2c-1 0 1-7-7-6a6 6 0 0 0-2 0 15 15 0 0 0-2 1 30 30 0 0 0-3 2l-2-2v-1 1h2c3 0 6-2 8-3s5-5 6-9l3 1 6 7-2 14Z" fill="url(#P)" />
		<path d="m278 389-3 1-6-5-2-6-1-8 4 7v1a124 124 0 0 1 8 10Z" fill="url(#Q)" />
		<path d="m326 306-8 9c-7 3-9 14-7 19l-6 5v-11l6-19c3-2 6-4 9-4 3-1 5 0 6 1Z" fill="url(#R)" />
		<path d="M427 354v-1l-5-4-10-8-10-6-2-2h-1c2-3 0-9 0-9l8 9c2 1 9 4 10 6 1 1 9 9 9 11l1 4Z" fill="url(#S)" />
		<path d="m385 517-2 1a84 84 0 0 1-7 4 43 43 0 0 1-4 2l-2 1a79 79 0 0 1-13 5h-2a101 101 0 0 1-6 2h-2a197 197 0 0 1-23 0h-2l-2-1h-3l-2-1h-2l-2-1h-2a118 118 0 0 1-21-9c-8-5-15-13-21-20l9 7c7 6 32 15 32 15v1a45 45 0 0 0 4 1l16 6c3 1 11 0 25-2 12-2 24-7 32-11Z" fill="url(#T)" />
		<path d="m228 490-2 19-16-32s4-2 7-12l1-4 10 29Z" fill="#965754" />
		<path d="m406 509-1 3c-8 16-18 51-18 51l-5 6v-5l-8 6v1l-19 6a156 156 0 0 0 6-8c12-7 22-17 25-23l20-36v-1Z" fill="url(#U)" />
		<path d="M201 274v-1l1-11c0-3 0-6-2-7-1-1-1 3-2 5l-4-12c1 0 9 4 10 8 1 2-1 11-3 18ZM207 300v6l-1 4-6-11c-1-2 0-10 3-14l1 11c1 3 2 2 2 2l1 2Z" fill="#965754" />
		<path d="M327 265c0-1-6-10-21-11-16-2-39 0-48 5 0 0 0-5 17-7 16-2 46-3 52 13ZM452 268s-13-9-30-8c-17 0-25 4-29 7 0 0-1-6 23-8s36 6 36 9Z" fill="#643734" />
		<path d="m288 466 13 2c4 0 12-3 17-2s12 2 14 1 17-13 25-12c7 0 14 16 19 18h22s-27 13-52 13c-24 1-58-20-58-20Z" fill="#C88179" />
		<path d="M376 410c-5 2-16 7-25 7-11 0-22-4-24-5 15 3 38 1 38 1l5-3h6Z" fill="#965754" />
		<path d="M336 353a193 193 0 0 1-16-12l4 2a225 225 0 0 0 6 1l6 8v1Z" fill="url(#V)" />
		<path d="m389 342-4 1h-5l-9 4-1 1v-2h1c6-4 11-5 17-5l1 1ZM344 348l-12-5h-8l-9-3h2l10 1c5 1 13 2 17 7Z" fill="#643734" />
		<path d="m470 246-1-25c0-5-7-21-8-27-1-7 3-45 1-49-2-3-15-12-26-16l-12 23c-1 5-8 32-11 37l-18 24-4 15s48-6 58-3c9 3 21 20 21 20v1Z" fill="url(#W)" />
		<path d="M301 184s25 1 35 6c10 6 25 26 25 28s-17 13-22 13-21-7-22-8l-21-8 5-31Z" fill="url(#X)" />
		<path opacity=".7" d="M488 180v44c0 9-8 49-8 52 0 2 2 15 0 17-3 2-16-3-24 0-9 2-25 16-28 17s-23-3-26-3h-8l2 2 17 12c4 3 23 15 30 17 7 3 35-5 38-9s7-9 7-11l4-30s7-65 6-79c-1-13-10-29-10-29Z" fill="url(#Y)" />
		<path d="m442 272-2 1-2 4-6 2h8c4-1 7-3 6-5l-4-2Z" fill="url(#Z)" />
		<path d="m434 261-11-1-7 1 10 3c3 1 8-3 8-3Z" fill="url(#aa)" />
		<path d="m378 335-7 3c-3 1-8 3-11 2l-7-7-3-5 2-14 7-54 3-2c4-1 10 3 10 3l2 40 5 17c1 5 0 16-1 17Z" fill="url(#ab)" />
		<path d="m399 328-1-4-6-4-4 11c0 2 1 7 3 8 2 0 4 1 5-1 2-2 3-6 3-10Z" fill="url(#ac)" />
		<path d="m387 340-8 2c-3 0-6 2-8 3l-7 5-9 3-5-1-4-3-3-3-3-2-9-3-4-1h-4 9c3 1 6 1 8 3l8 5 3 2 4 1 8-2 7-5 4-2 5-1 8-1Z" fill="#F3E3D2" opacity=".6" />
		<path d="m411 377-3 3-7 3v1h-2l-37-4s8-9 10-9 23-31 23-31 5-3 5-6l9 7c1 2 3 34 2 36Z" fill="url(#ad)" />
		<path d="m408 380-7 3-2 1-37-4s8-9 10-9c16-3 30 6 36 9Z" fill="#F3E3D2" />
		<path d="m403 386 12-2 5 3c1 1-8 6-8 7 1 2 9 4 9 6s-13 22-19 24c-6 1-13-5-13-5l5-17-9 2s16-18 18-18Z" fill="url(#ae)" />
		<path opacity=".6" d="M357 324c0 5-2 9-4 9l-3-5 2-14c3 0 5 4 5 10Z" fill="#F6FBF4" />
		<path d="m418 430-11 8c-5 4-17 6-17 6s-16-11-20-10-9 6-11 15c0 0 12 12 26 10s33-19 33-29Z" fill="url(#af)" />
		<path d="m228 490-11-21v-2a41 41 0 0 0 1-6c3-13 4-38 4-41l1 1 5 69Z" fill="url(#ag)" />
		<path d="M300 504c-1 0-34-6-49-25l-2-4-9-14-4-8-8-17v-1l-5-12-1-3v-1a31 31 0 0 1 1 1v1c11 13 25 35 31 41l33 31 13 11Z" fill="#CA8379" />
		<path d="m394 477-1 1-15 18-49 8-42-11-11-3-30-33-6-6c0-2-13-23-17-29v-1l-1-1v-1l-7-27-5-20-1-1-3-26-4-1v-1l-1-1 1-4v-6l2-10 1-6v-1l1-5 1-11 1-3v-7l4-15-2 8a211 211 0 0 0 0 68 258 258 0 0 0 64 107 96 96 0 0 0 11 9 118 118 0 0 0 12 6l1 1 6 2 12 5h1c9 3 18 4 26 5h17l7-1 7-2 16-4 4-1Z" fill="#CA8379" />
		<path d="M419 451c-3 7-8 14-17 21a91 91 0 0 1-71 15c-24-4-40-13-50-22-9-9-13-17-13-17 9 8 17 15 26 20 19 11 38 17 63 15 14 0 26-5 36-10 16-10 26-22 26-22Z" fill="#985754" />
		<path d="M282 465s27 8 41 10c13 2 24 3 30 2l24-4c5 0 17 1 21-2 0 0-25 16-55 14s-61-20-61-20Z" fill="#985754" />
		<path d="m291 468-10-9-9-10c-2-3-9-12-12-13l-10-5s26 34 41 41c15 8 20 8 20 8l-20-12Z" fill="url(#ah)" />
		<path d="M402 472a91 91 0 0 1-71 15c-24-4-40-13-50-22a64 64 0 0 0 13 3c19 11 38 17 63 15 14 0 26-5 36-10l9-1Z" fill="#643734" />
		<path d="m342 381-28 1s-5 4-4 5 2 0 9 6c6 5 21 9 21 9l23 1 23-6 14-7c0-1 10-9-10-11-19-2-42 3-48 2" fill="#C2C2C2" />
		<path d="m399 382-1-1-4-1h-6l-5-1-6 1 2 2-1 6a9 9 0 0 1-1 1c-2 3-8 2-8 2v-5c0-2 6-6 6-6l-6 1-5 1 3 2c1 1 1 7-1 8-3 1-13 0-13-1v-4c1-2 7-5 7-5h-11l-6 1 5 1c2 0 3 2 3 2v5l-5 2-9-1v-9l5-1h-4l-8 1h1l5 3-2 5-7-3h-1v-4l4-2h-3l-8 1 5 1 1 3v1l-1 1-3 1c-3 0-6-4-6-4l-5 5 7 4h10l-1-1v-4l7 2-1 2-1 2v2l2-1v-2l2-2h5v4l-2 1h5l-1-2v-3h3l6-1 1 5-4 2h7l-1-2v-5l7 1v5l-1 1 4-1-1-2v-3l5-1h3l2 4v-4c3 0 5-2 5-2l3 5 2 1 2-1 3-5 3-7 1 1v1l-1 4v1h-1v1l-1 2 8-3 2-2v-1a10 10 0 0 0 0-5Zm-13 9-2 1h-1l-4-4 3-5 4-2 2 2-2 8Z" fill="#949393" />
		<path d="m399 385-5 6 1-7-1-1-2 6-2 2 1-1v-1l1-4v-3l-2-2h4l4 1 1 4ZM385 392l-4 3-3-5-1-1 1-1h1l4 4h2ZM326 390v5h-3l-1-2 2-4 1-1h1v2Z" fill="#707070" />
		<path d="m436 268-3 4-6 2h-18l-5-1-6-1h-4l4-3 10-3 9-2c4-1 8 0 11 1l8 3ZM320 268l-14-1h-3a118 118 0 0 1-20-1l-5-4 5-3c4-1 10-3 16-2l5 1c9 3 16 10 16 10Z" fill="#E3E3E3" />
		<path d="m436 268-3 4c-1-2-2-3-5-3-12-3-18 2-17 3l4 2-11-1-6-1h-4l4-3s10-4 19-5 19 4 19 4ZM320 268h-3l-6-1h-5l4-2-4-3c-4-1-10-2-13-1l-2 1c-3 1 1 4 3 5h-6l-7-2-3-3s10-7 21-5a37 37 0 0 1 21 11Z" fill="#B5B5B5" />
		<path d="M317 267v1l-6-1 2-1c0-1-3-3-7-4s-10-2-13-1l-11 1-1 3-3-3s10-7 21-5c8 1 14 5 18 8v2ZM436 268l-3 4v-4c-1-1-8-4-15-4s-15 6-16 6l2 3-6-1h-4l4-3s10-4 19-5 19 4 19 4Z" fill="#757575" />
		<path d="m429 269-2 5h-18a11 11 0 0 1-1-8l9-2c4-1 8 0 11 1l1 4ZM305 262l-2 5a118 118 0 0 1-20-1 11 11 0 0 1 0-7c4-1 10-3 16-2l5 1 1 4Z" fill="#232323" />
		<path opacity=".5" d="m434 266-7 2-4-1-3-1 3-1h4l7 1Z" fill="#E3E3E3" />
		<path d="M423 266v1l-3-1 3-1v1Z" fill="#E3E3E3" />
		<path opacity=".4" d="m308 260-6 1h-2l-3-1 3-1h2l6 1Z" fill="#E3E3E3" />
		<path d="M300 260v1l-3-1 3-1v1Z" fill="#E3E3E3" />
		<path d="M417 381h-7l-18-3c-6-1-17-3-26-1l-15 1-11-1c-4-1-20 1-29 3l-21 2c-2 0-2 2-2 2a36 36 0 0 0 5 1l12 9c6 4 21 17 37 19 7 1 18 1 27-1 10-2 19-5 23-9l7-7 13-10a78 78 0 0 1 7-3l-2-2Zm-100 7-1-4 21-1c10 0 12 2 23 1l22-3c8 0 12 0 14 2v3l-1 1-14 5c-4 1-15 5-28 5s-28-5-32-6c-2 0-3-2-4-3Z" fill="#E88786" />
		<path d="m419 383-3 1h-4l-17 3 1-4-10-2h-4l-22 3c-11 1-13-1-23-1l-21 1 1 3c0 2 1 3 4 4l-28-6-5-1s0-2 2-2l4-1 17-1a230 230 0 0 1 29-3l11 1 15-1c9-2 20 0 26 1h1l17 3h7l2 2Z" fill="#C56B6A" />
		<path d="m406 384-7 2-4 1-4 4-10 5a163 163 0 0 1-29 5l-24-2s6 8 12 10c5 2 18 2 20 2l9 1c-9 2-20 2-27 1a77 77 0 0 1-37-19l-12-9-2-1h2l22 4h2a6 6 0 0 0 1 2l2 1h1c4 1 19 6 32 6s24-4 28-5l14-5 1-1h1l9-2Z" fill="url(#ai)" />
		<path d="m321 391-8-2-20-4-5-1s0-2 2-2l4-1 9 2 13 1c0 3 1 6 5 7Z" fill="#A04C4E" />
		<path d="M418 383a84 84 0 0 0-6 3l-13 10 1-1 4-10h-2l8-2h8Z" fill="url(#aj)" />
		<path d="m419 383-3 1h-4l-7 1-9 2h-1l1-4 15-2h6l2 2Z" fill="#A04C4E" />
		<path d="m395 380-9 1h-4l-22 3c-11 1-13-1-23-1l-21 1 1 3-4-1-11-3h8l27-3 20 2 27-3 11 1Z" fill="url(#ak)" />
		<path d="M419 383h-9l-5 2a547 547 0 0 0-3-1l-6-1 15-2h6l2 2Z" fill="#7C3D40" />
		<path d="m393 378-9 1-21 2c-4 1-17 0-22-1l-11-3h10l11 1 15-1c9-2 20 0 26 1h1Z" fill="url(#al)" />
		<path d="m404 386-5 10-7 7c-4 4-13 7-23 9l-24-2-8-5s4-4 6-4 9 1 16-1l18-3 5-1 2-1 12-8 8-1Z" fill="url(#am)" />
		<path opacity=".7" d="m390 397-12 5c-6 2-16 0-17 0l-10 2-8-3c2 0 9 1 16-1l18-3 5-1h5l3 1Z" fill="url(#an)" />
		<path d="m320 391-11 2-1 3-3-2-12-9h6l16 3h2l3 3Z" fill="url(#ao)" />
		<path d="m312 387 1 2-20-4 1-1 9-1 13 1s-5 2-4 3Z" fill="#7C3D40" />
		<path d="m399 396-7 7c-4 4-13 7-23 9 8-2 29-15 30-16Z" fill="url(#ap)" />
		<path d="M400 386h-1l-4 1-4 4a190 190 0 0 1-32 9l-22-3c-11-2-22-8-22-8a323 323 0 0 0 5 2h1c4 1 19 6 32 6s24-4 28-5l14-5 1-1h4Z" fill="url(#aq)" />
		<path d="m326 270-1-2s-15-12-29-12c-15 0-26 5-32 9l13-1c4 0 6-6 20-5 15 1 19 8 19 8h-10l14 2 6 1ZM456 271c-5 0-17-6-29-8-11-2-24 4-26 5l-10 2-2 4c10-2 15-1 15-1l-5-1s0-4 13-7h13l8 4 17 7-5-5h11ZM388 248s-3-18 6-20c0 0-4 6-6 20Z" fill="#232323" />
		<path d="M389 248s1-19 15-21c0 0-7 3-15 21Z" fill="#232323" />
		<path d="M391 248s9-19 16-21c8-2 31 2 31 2l-13-3s13-2 26 3c0 0-7-4-15-4 0 0 11-3 20 3 9 5 18 21 19 26 0 0-5-11-22-12s-51 4-58 6c0 0 5-12 13-15 0 0-7 1-14 14l-3 1ZM337 247s2-10-7-16c0 0 4 5 7 16ZM335 246s-2-11-11-18c-8-6-29-12-42-10 0 0 9-3 17-1 0 0-18-7-31-3 0 0 5-3 12-3 0 0-8-2-17 2-10 5-23 16-25 26 0 0 7-10 20-11 12-1 31 6 49 10l21 5s0-6-5-9c0 0 4 1 7 9 0 0 3 3 5 3Z" fill="#232323" />
		<path d="m491 318-2-81c-1-15-4-20-4-27 0-8-5-51-12-59-7-9-14-14-14-14l10 6s-7-8-13-10l7-2s-20-17-27-18c-7-2-11-1-20-1s-23-1-37 3c-14 5-19 8-27 8-9-1-24-6-49 1s-22 13-39 18c-16 4-30 14-32 29 0 0-1-13 3-20 0 0-6 8-7 19-2 11 0 29-1 34l-10 45-10 57s-3-10-2-16 4-18 3-28l-9-37-1 8s-6-21-5-28l-2 7s-5-18-2-29c0 0-4 4-4 7 0 0-4-11 5-31 8-19 23-49 31-57 8-7 21-22 31-28 10-5 37-20 53-24 15-3 38-8 52-5s17 2 31 2c14 1 50 17 50 17s-25-16-39-16c0 0 35-3 57 23 23 25 6 38 6 38s19-3 12-17c-6-13-37-20-37-20s23-5 43 13c19 17 0 31 0 31s22-9 10-23c-13-14-30-16-30-16s34 1 39 21-7 24-7 24 27 16 31 37 1 25 1 25-2-30-18-45c-15-14-20-12-30-10 0 0 32 7 42 25s11 36 8 47l-3-7-3 22-3-9v26l-3-5-1 13c-1 3-10 16-11 20l-2 11c-1 3-4 6-5 14 0 9-1 27-4 32Z" fill="#232323" />
		<path d="M451 113s25-10 10-33c-15-24-34-28-51-30 0 0 36 10 42 27 6 16-4 29-15 30 0 0 22 0 21-21 0 0 7 17-7 27Z" fill="#3D3D3D" />
		<path d="M446 100s11-20-6-32c-17-13-44-20-50-20h-16l-21-3c-9-1-48 5-60 10l-17 9s29-13 72-6c42 7 93 22 92 42 0 0 7-12-12-24-19-13-78-27-99-24 0 0 28-6 69 9s56 31 39 44c0 0 16-8 5-24-11-17-48-28-65-30 0 0 26 0 50 15 23 14 21 24 19 34Z" fill="#3D3D3D" />
		<path d="M437 98s-1-14-38-27-78-16-99-13c-22 4-42 16-42 16s57-6 98 7c41 12 41 27 41 27s19-20-40-34c-58-14-83-5-83-5s27-13 85 4c58 16 45 33 45 33s17-9 2-21c-15-11-52-19-69-21 0 0 43 2 74 21 0 0 15 12 3 21 0 0 32-12-3-26 0 0 15 3 26 18Z" fill="#3D3D3D" />
		<path d="M395 107s-3-13-35-23-86 6-92 2c-6-3-6-9-6-9s-17 22 2 24c18 1 40-13 63-6s25 26 25 26 25-28-23-35c0 0 48 3 33 30 0 0 18-6 12-18s-43-14-43-14 37 0 48 13c0 0 6 12-4 16 0 0 12-1 20-6Z" fill="#3D3D3D" />
		<path d="M345 113s-7-19-36-18c-29 2-51 21-59 6-8-14 10-25 10-25s-25 9-28 21c-3 13 10 20 32 16 21-3 39-13 54-10 0 0-18 2-28 6s-35 13-42 20c-7 8-12 26-12 26s5-14 14-18l27-16c8-5 17-13 40-11 0 0-13 0-22 5-8 5-18 16-23 19l-11 6s9-1 20-9c11-7 24-13 40-13 15 0 27 3 27 3s-12-9-33-7c0 0 21-6 34 6l-4-7Z" fill="#3D3D3D" />
		<path d="M248 117s-24-3-18-20c0 0-32 27 18 20ZM453 114s21-2 24-14c3-13-14-23-14-23s19 6 22 20c3 13-7 26-33 21 0 0 26 2 29-17 0 0-2 16-28 13Z" fill="#3D3D3D" />
		<path d="M461 121s27 0 32-14c6-14-13-23-13-23s20 4 19 23-27 17-38 14Z" fill="#3D3D3D" />
		<path d="M471 125s14-4 24 1c10 4 26 22 28 35 0 0-11-23-23-29-11-6-20-7-29-7Z" fill="#3D3D3D" />
		<path d="M462 133s14-4 33 6 29 29 31 39v16l-6-16v27s-5-19-16-35c0 0 10 22 11 34v23l-3-6-1 18-11 22-3 11s6-33 6-43c1-10-2-20-2-20v26l-9 43s0-47-2-56l-4-17 10 20-6-35c-3-10-5-12-5-12s15 12 20 29l-14-41c-4-8-14-16-14-16s18 4 27 14c0 0-13-21-42-31ZM248 120s-30 9-41 33c0 0 12-16 33-24 0 0-21 16-26 40 0 0 7-11 18-17 0 0-9 8-9 21 1 13 2 26 1 31l-7 32v-39l-4 59-2 12-7-39 3-27s-9 17-9 23c0 0-6-17-2-33s13-26 13-26-10 8-14 21l-4 16s-2-14 0-26l-5 6s1-12 10-31c8-19 29-24 29-24s-16 2-24 10c0 0 8-15 19-17 12-3 28-1 28-1Z" fill="#3D3D3D" />
		<path d="m463 101 1-4v-5l-3-9-5-8-7-7a86 86 0 0 0-26-14l-9-3a81 81 0 0 1 28 10l4 3 2 1 2 2 7 7 2 2 1 2 1 2 1 2c2 3 3 6 3 10v2l-1 3-1 4Z" fill="#5E5E5E" />
		<path d="m449 83-1-2-1-2-1-2-1-2-7-6-8-5-8-4a129 129 0 0 0-36-11l19 2a106 106 0 0 1 34 16l6 7 2 2 1 2 1 5Z" fill="#5E5E5E" />
		<path d="m443 85-1-3-2-3-5-4-11-7-24-10a263 263 0 0 0-52-10 197 197 0 0 1 77 18l11 8 4 5 3 6Z" fill="#5E5E5E" />
		<path d="m439 89-2-4-4-3-1-2-2-1-1-1h-1l-2-2-18-7a258 258 0 0 0-93-16l19-1 10 1h5l4 1 10 1 9 2 10 2 9 2 4 1 5 2 5 1 4 2c6 2 12 5 17 9l2 1 1 1h1l2 2 2 1 5 8Z" fill="#5E5E5E" />
		<path d="M413 79a413 413 0 0 0-76-19l-10-1h-12l-2 1h-5l-10 1-19 4-2 1-3 1-2 1-2 1-2 1-3 1-4 2 9-5 2-1 2-1 2-1 3-1a124 124 0 0 1 39-7h5l4 1h10l5 1 5 1a462 462 0 0 1 29 6l37 13Z" fill="#5E5E5E" />
		<path d="m410 96-1-3-1-2-1-1-5-4-11-6-23-8a327 327 0 0 0-37-7l-12-2a233 233 0 0 1 49 7l6 2 6 2 6 2 3 2 3 1 11 7 4 4 1 1 1 2 1 3Z" fill="#5E5E5E" />
		<path d="m398 99-1-4-2-1-1-2-1-1-1-1h-1l-2-2-1-1-15-7-32-7a451 451 0 0 0-33-5c-10-1-22-1-32 2a116 116 0 0 1 33-4l32 5 17 3 8 2 4 1 4 2 14 7 2 2 2 1v1h1l1 2c2 2 4 4 4 7Z" fill="#5E5E5E" />
		<path d="m385 98-7-4-3-2-4-2a89 89 0 0 0-32-7h-16l-33 5-9 1h-8l-4-1h-1l-1-1-2-1c-2-2-3-5-3-8l1 4a13 13 0 0 0 4 5l2 1h4l8-1a291 291 0 0 0 25-4 271 271 0 0 1 25-2h8a81 81 0 0 1 46 17Z" fill="#5E5E5E" />
		<path d="M372 103c0-3-1-5-3-7l-6-4c-4-2-9-4-14-4l-3-1h-4l-7-1-15 1-29 4a125 125 0 0 1-23 1l-6-3 7 2 7 1 14-2 30-5a130 130 0 0 1 22 0h4l4 1 14 5 5 5 1 2 1 1 1 4Z" fill="#5E5E5E" />
		<path d="m353 119 2-8v-8c-1-3-2-5-5-7l-7-4-16-1-16 2-33 6a104 104 0 0 1-12 2l-5-1-1-1h-1l-1-2-2-4 1-4 1-4-1 4v4l1 4 2 1h1l1 1h8l8-1 16-4a359 359 0 0 1 33-5c6 0 11 0 17 2l7 4 5 8v8l-3 8Z" fill="#5E5E5E" />
		<path d="M343 111c-3-5-8-9-13-11s-11-3-16-3h-5l-2 1h-2l-8 2-16 6-16 7-9 2h-9l-8-4-5-7v-9l6-6a19 19 0 0 0-5 6v8l5 7 4 2h1l1 1h10l8-2 16-7a142 142 0 0 1 27-8h7l17 3c5 3 10 7 12 12Z" fill="#5E5E5E" />
		<path d="m342 114-10-4a61 61 0 0 0-29-2l-10 2-5 2-4 1a347 347 0 0 0-1-1c6-3 13-5 20-6a53 53 0 0 1 39 8Z" fill="#5E5E5E" />
		<path d="M338 118a133 133 0 0 0-28-4l-9 2-4 2-4 2-7 6-8 6a86 86 0 0 1-8 4l4-2 4-3 7-6a140 140 0 0 1 11-9l5-2c6-2 12-2 19-1l18 5ZM466 118l7-2 6-4 2-3a14 14 0 0 0 3-10l-1-1v-2l-1-2-1-1-4-6-5-5-6-4a34 34 0 0 1 12 8c4 3 7 8 8 13l-1 8-5 6-6 4-8 1Z" fill="#5E5E5E" />
		<path d="M471 122a58 58 0 0 0 15-2l3-1 3-2 3-3 1-3 1-1v-6l-2-7c-2-4-5-8-9-11 4 2 8 6 11 11l2 7v6l-1 2a14 14 0 0 1-5 6l-7 4a35 35 0 0 1-15 0Z" fill="#5E5E5E" />
	</g>
	<defs>
		<radialGradient id="b" cx="0" cy="0" r="1" gradientUnits="userSpaceOnUse" gradientTransform="translate(71 606) scale(109.86)">
			<stop stop-color="#505151" />
			<stop offset="1" stop-color="#505151" stop-opacity="0" />
		</radialGradient>
		<radialGradient id="c" cx="0" cy="0" r="1" gradientUnits="userSpaceOnUse" gradientTransform="translate(23 649) scale(88.08)">
			<stop stop-color="#505151" />
			<stop offset="1" stop-color="#505151" stop-opacity="0" />
		</radialGradient>
		<radialGradient id="d" cx="0" cy="0" r="1" gradientUnits="userSpaceOnUse" gradientTransform="translate(-72 577) scale(139.61)">
			<stop stop-color="#505151" />
			<stop offset="1" stop-color="#505151" stop-opacity="0" />
		</radialGradient>
		<radialGradient id="e" cx="0" cy="0" r="1" gradientUnits="userSpaceOnUse" gradientTransform="translate(497 468) scale(74.01)">
			<stop stop-color="#505151" />
			<stop offset="1" stop-color="#505151" stop-opacity="0" />
		</radialGradient>
		<radialGradient id="f" cx="0" cy="0" r="1" gradientUnits="userSpaceOnUse" gradientTransform="translate(520 577) scale(95.65)">
			<stop stop-color="#505151" />
			<stop offset="1" stop-color="#505151" stop-opacity="0" />
		</radialGradient>
		<radialGradient id="g" cx="0" cy="0" r="1" gradientUnits="userSpaceOnUse" gradientTransform="translate(525 634) scale(183.6)">
			<stop stop-color="#505151" />
			<stop offset="1" stop-color="#505151" stop-opacity="0" />
		</radialGradient>
		<radialGradient id="h" cx="0" cy="0" r="1" gradientUnits="userSpaceOnUse" gradientTransform="matrix(83.9301 0 0 83.93 473 538)">
			<stop stop-color="#505151" />
			<stop offset="1" stop-color="#505151" stop-opacity="0" />
		</radialGradient>
		<radialGradient id="i" cx="0" cy="0" r="1" gradientUnits="userSpaceOnUse" gradientTransform="translate(556 663) scale(84.75)">
			<stop stop-color="#505151" />
			<stop offset="1" stop-color="#505151" stop-opacity="0" />
		</radialGradient>
		<radialGradient id="j" cx="0" cy="0" r="1" gradientUnits="userSpaceOnUse" gradientTransform="matrix(74.6101 0 0 74.61 608 633)">
			<stop stop-color="#505151" />
			<stop offset="1" stop-color="#505151" stop-opacity="0" />
		</radialGradient>
		<radialGradient id="k" cx="0" cy="0" r="1" gradientUnits="userSpaceOnUse" gradientTransform="translate(640 566) scale(147.38)">
			<stop stop-color="#505151" />
			<stop offset="1" stop-color="#505151" stop-opacity="0" />
		</radialGradient>
		<radialGradient id="l" cx="0" cy="0" r="1" gradientUnits="userSpaceOnUse" gradientTransform="translate(710 583) scale(96.48)">
			<stop stop-color="#505151" />
			<stop offset="1" stop-color="#505151" stop-opacity="0" />
		</radialGradient>
		<radialGradient id="m" cx="0" cy="0" r="1" gradientUnits="userSpaceOnUse" gradientTransform="translate(701 660) scale(51.41)">
			<stop stop-color="#505151" />
			<stop offset="1" stop-color="#505151" stop-opacity="0" />
		</radialGradient>
		<radialGradient id="n" cx="0" cy="0" r="1" gradientUnits="userSpaceOnUse" gradientTransform="translate(99 500) scale(78.83)">
			<stop stop-color="#505151" />
			<stop offset="1" stop-color="#505151" stop-opacity="0" />
		</radialGradient>
		<radialGradient id="o" cx="0" cy="0" r="1" gradientUnits="userSpaceOnUse" gradientTransform="matrix(55.1 0 0 55.1 167 441)">
			<stop stop-color="#505151" />
			<stop offset="1" stop-color="#505151" stop-opacity="0" />
		</radialGradient>
		<radialGradient id="p" cx="0" cy="0" r="1" gradientUnits="userSpaceOnUse" gradientTransform="translate(310 717) scale(136.88)">
			<stop stop-color="#4A467F" />
			<stop offset="1" stop-color="#4A467F" stop-opacity="0" />
		</radialGradient>
		<radialGradient id="q" cx="0" cy="0" r="1" gradientUnits="userSpaceOnUse" gradientTransform="translate(377 690) scale(111.57)">
			<stop stop-color="#4A467F" />
			<stop offset="1" stop-color="#4A467F" stop-opacity="0" />
		</radialGradient>
		<radialGradient id="r" cx="0" cy="0" r="1" gradientUnits="userSpaceOnUse" gradientTransform="matrix(80.8699 0 0 80.87 409 717)">
			<stop stop-color="#4A467F" />
			<stop offset="1" stop-color="#4A467F" stop-opacity="0" />
		</radialGradient>
		<radialGradient id="s" cx="0" cy="0" r="1" gradientUnits="userSpaceOnUse" gradientTransform="matrix(99.8699 0 0 99.87 108 704)">
			<stop stop-color="#4A467F" />
			<stop offset="1" stop-color="#4A467F" stop-opacity="0" />
		</radialGradient>
		<radialGradient id="t" cx="0" cy="0" r="1" gradientUnits="userSpaceOnUse" gradientTransform="matrix(98.3 0 0 98.3 179 710)">
			<stop stop-color="#4A467F" />
			<stop offset="1" stop-color="#4A467F" stop-opacity="0" />
		</radialGradient>
		<radialGradient id="u" cx="0" cy="0" r="1" gradientUnits="userSpaceOnUse" gradientTransform="matrix(53.1 0 0 53.1 288 728)">
			<stop stop-color="#4A467F" />
			<stop offset="1" stop-color="#4A467F" stop-opacity="0" />
		</radialGradient>
		<radialGradient id="C" cx="0" cy="0" r="1" gradientUnits="userSpaceOnUse" gradientTransform="translate(131 440) scale(248.08)">
			<stop stop-color="#D7E2FA" />
			<stop offset="1" stop-color="#D7E2FA" stop-opacity="0" />
		</radialGradient>
		<radialGradient id="W" cx="0" cy="0" r="1" gradientUnits="userSpaceOnUse" gradientTransform="translate(438 215) scale(97.84)">
			<stop stop-color="#F3E3D2" />
			<stop offset="1" stop-color="#F3E3D2" stop-opacity="0" />
		</radialGradient>
		<radialGradient id="X" cx="0" cy="0" r="1" gradientUnits="userSpaceOnUse" gradientTransform="translate(325 226) scale(49.96)">
			<stop stop-color="#F3E3D2" />
			<stop offset="1" stop-color="#F3E3D2" stop-opacity="0" />
		</radialGradient>
		<radialGradient id="Y" cx="0" cy="0" r="1" gradientUnits="userSpaceOnUse" gradientTransform="translate(481 316) scale(145.9)">
			<stop stop-color="#F3E3D2" />
			<stop offset="1" stop-color="#F3E3D2" stop-opacity="0" />
		</radialGradient>
		<radialGradient id="Z" cx="0" cy="0" r="1" gradientUnits="userSpaceOnUse" gradientTransform="translate(443 277) scale(17.76)">
			<stop stop-color="#F3E3D2" />
			<stop offset="1" stop-color="#F3E3D2" stop-opacity="0" />
		</radialGradient>
		<radialGradient id="aa" cx="0" cy="0" r="1" gradientUnits="userSpaceOnUse" gradientTransform="translate(426 261) scale(23.54)">
			<stop stop-color="#F3E3D2" />
			<stop offset="1" stop-color="#F3E3D2" stop-opacity="0" />
		</radialGradient>
		<radialGradient id="ab" cx="0" cy="0" r="1" gradientUnits="userSpaceOnUse" gradientTransform="translate(375 297) scale(66.31)">
			<stop stop-color="#F3E3D2" />
			<stop offset="1" stop-color="#F3E3D2" stop-opacity="0" />
		</radialGradient>
		<radialGradient id="ac" cx="0" cy="0" r="1" gradientUnits="userSpaceOnUse" gradientTransform="translate(396 331) scale(15.21)">
			<stop stop-color="#F3E3D2" />
			<stop offset="1" stop-color="#F3E3D2" stop-opacity="0" />
		</radialGradient>
		<radialGradient id="ad" cx="0" cy="0" r="1" gradientUnits="userSpaceOnUse" gradientTransform="translate(396 364) scale(44.77)">
			<stop stop-color="#F3E3D2" />
			<stop offset="1" stop-color="#F3E3D2" stop-opacity="0" />
		</radialGradient>
		<radialGradient id="ae" cx="0" cy="0" r="1" gradientUnits="userSpaceOnUse" gradientTransform="translate(398 391) scale(45.08)">
			<stop stop-color="#F3E3D2" />
			<stop offset="1" stop-color="#F3E3D2" stop-opacity="0" />
		</radialGradient>
		<radialGradient id="af" cx="0" cy="0" r="1" gradientUnits="userSpaceOnUse" gradientTransform="translate(389 449) scale(42.16)">
			<stop stop-color="#F3E3D2" />
			<stop offset="1" stop-color="#F3E3D2" stop-opacity="0" />
		</radialGradient>
		<radialGradient id="al" cx="0" cy="0" r="1" gradientUnits="userSpaceOnUse" gradientTransform="translate(358 372) scale(32.56)">
			<stop stop-color="#E88786" />
			<stop offset="1" stop-color="#E88786" stop-opacity="0" />
		</radialGradient>
		<radialGradient id="am" cx="0" cy="0" r="1" gradientUnits="userSpaceOnUse" gradientTransform="translate(372 403) scale(38.42)">
			<stop stop-color="#F1A4A3" />
			<stop offset="1" stop-color="#F1A4A3" stop-opacity="0" />
		</radialGradient>
		<radialGradient id="an" cx="0" cy="0" r="1" gradientUnits="userSpaceOnUse" gradientTransform="matrix(30.67 0 0 30.6699 366 392)">
			<stop stop-color="#F1DBD9" />
			<stop offset="1" stop-color="#F1DBD9" stop-opacity="0" />
		</radialGradient>
		<radialGradient id="ap" cx="0" cy="0" r="1" gradientUnits="userSpaceOnUse" gradientTransform="translate(390 413) scale(18.61)">
			<stop stop-color="#F1DBD9" />
			<stop offset="1" stop-color="#F1DBD9" stop-opacity="0" />
		</radialGradient>
		<linearGradient id="v" x1="200.3" y1="441.4" x2="178.8" y2="563.9" gradientUnits="userSpaceOnUse">
			<stop stop-color="#8E9DBD" />
			<stop offset="1" stop-color="#8E9DBD" stop-opacity="0" />
		</linearGradient>
		<linearGradient id="w" x1="267.9" y1="693.5" x2="308.3" y2="575.2" gradientUnits="userSpaceOnUse">
			<stop stop-color="#667182" />
			<stop offset="1" stop-color="#667182" stop-opacity="0" />
		</linearGradient>
		<linearGradient id="x" x1="208.4" y1="579.2" x2="304.7" y2="605.1" gradientUnits="userSpaceOnUse">
			<stop stop-color="#667182" />
			<stop offset="1" stop-color="#667182" stop-opacity="0" />
		</linearGradient>
		<linearGradient id="y" x1="381.9" y1="550.7" x2="350.6" y2="668.2" gradientUnits="userSpaceOnUse">
			<stop stop-color="#667182" />
			<stop offset="1" stop-color="#667182" stop-opacity="0" />
		</linearGradient>
		<linearGradient id="z" x1="465.8" y1="575.5" x2="385.2" y2="568.2" gradientUnits="userSpaceOnUse">
			<stop stop-color="#667182" />
			<stop offset="1" stop-color="#667182" stop-opacity="0" />
		</linearGradient>
		<linearGradient id="A" x1="242.3" y1="598.9" x2="285.3" y2="533.7" gradientUnits="userSpaceOnUse">
			<stop stop-color="#3A4149" />
			<stop offset="1" stop-color="#3A4149" stop-opacity="0" />
		</linearGradient>
		<linearGradient id="B" x1="339.8" y1="665.5" x2="298.4" y2="637.1" gradientUnits="userSpaceOnUse">
			<stop stop-color="#3A4149" />
			<stop offset="1" stop-color="#3A4149" stop-opacity="0" />
		</linearGradient>
		<linearGradient id="D" x1="390.3" y1="264.2" x2="346.1" y2="355.6" gradientUnits="userSpaceOnUse">
			<stop stop-color="#E3AC9C" />
			<stop offset="1" stop-color="#E3AC9C" stop-opacity="0" />
		</linearGradient>
		<linearGradient id="E" x1="338.4" y1="309.7" x2="379.1" y2="397.8" gradientUnits="userSpaceOnUse">
			<stop stop-color="#C88179" />
			<stop offset="1" stop-color="#C88179" stop-opacity="0" />
		</linearGradient>
		<linearGradient id="F" x1="281.7" y1="226.1" x2="287.1" y2="316.6" gradientUnits="userSpaceOnUse">
			<stop stop-color="#C88179" />
			<stop offset="1" stop-color="#C88179" stop-opacity="0" />
		</linearGradient>
		<linearGradient id="G" x1="292.2" y1="405.6" x2="272" y2="349.4" gradientUnits="userSpaceOnUse">
			<stop stop-color="#C88179" />
			<stop offset="1" stop-color="#C88179" stop-opacity="0" />
		</linearGradient>
		<linearGradient id="H" x1="313.4" y1="320.2" x2="251.5" y2="365.9" gradientUnits="userSpaceOnUse">
			<stop stop-color="#C88179" />
			<stop offset="1" stop-color="#C88179" stop-opacity="0" />
		</linearGradient>
		<linearGradient id="I" x1="356.9" y1="390.4" x2="361" y2="338.6" gradientUnits="userSpaceOnUse">
			<stop stop-color="#C88179" />
			<stop offset="1" stop-color="#C88179" stop-opacity="0" />
		</linearGradient>
		<linearGradient id="J" x1="264.8" y1="372" x2="298.5" y2="346.9" gradientUnits="userSpaceOnUse">
			<stop stop-color="#C88179" />
			<stop offset="1" stop-color="#C88179" stop-opacity="0" />
		</linearGradient>
		<linearGradient id="K" x1="333" y1="363.7" x2="359.2" y2="323" gradientUnits="userSpaceOnUse">
			<stop stop-color="#C88179" />
			<stop offset="1" stop-color="#C88179" stop-opacity="0" />
		</linearGradient>
		<linearGradient id="L" x1="353.1" y1="240.1" x2="316.1" y2="273.5" gradientUnits="userSpaceOnUse">
			<stop stop-color="#965754" />
			<stop offset="1" stop-color="#965754" stop-opacity="0" />
		</linearGradient>
		<linearGradient id="M" x1="398.4" y1="290.2" x2="391.4" y2="229.9" gradientUnits="userSpaceOnUse">
			<stop stop-color="#965754" />
			<stop offset="1" stop-color="#965754" stop-opacity="0" />
		</linearGradient>
		<linearGradient id="N" x1="385.7" y1="293.5" x2="434.8" y2="274.1" gradientUnits="userSpaceOnUse">
			<stop stop-color="#965754" />
			<stop offset="1" stop-color="#965754" stop-opacity="0" />
		</linearGradient>
		<linearGradient id="O" x1="296.5" y1="300.7" x2="283.8" y2="265.9" gradientUnits="userSpaceOnUse">
			<stop stop-color="#965754" />
			<stop offset="1" stop-color="#965754" stop-opacity="0" />
		</linearGradient>
		<linearGradient id="P" x1="406.5" y1="381.9" x2="442.3" y2="383.4" gradientUnits="userSpaceOnUse">
			<stop stop-color="#965754" />
			<stop offset="1" stop-color="#965754" stop-opacity="0" />
		</linearGradient>
		<linearGradient id="Q" x1="257.9" y1="365.9" x2="281.9" y2="396.6" gradientUnits="userSpaceOnUse">
			<stop stop-color="#965754" />
			<stop offset="1" stop-color="#965754" stop-opacity="0" />
		</linearGradient>
		<linearGradient id="R" x1="329.7" y1="334.2" x2="298.5" y2="307.4" gradientUnits="userSpaceOnUse">
			<stop stop-color="#965754" />
			<stop offset="1" stop-color="#965754" stop-opacity="0" />
		</linearGradient>
		<linearGradient id="S" x1="397.9" y1="365.5" x2="422.2" y2="321.6" gradientUnits="userSpaceOnUse">
			<stop stop-color="#965754" />
			<stop offset="1" stop-color="#965754" stop-opacity="0" />
		</linearGradient>
		<linearGradient id="T" x1="310.9" y1="583" x2="328" y2="497.1" gradientUnits="userSpaceOnUse">
			<stop stop-color="#965754" />
			<stop offset="1" stop-color="#965754" stop-opacity="0" />
		</linearGradient>
		<linearGradient id="U" x1="389.9" y1="540.4" x2="330.5" y2="558.1" gradientUnits="userSpaceOnUse">
			<stop stop-color="#965754" />
			<stop offset="1" stop-color="#965754" stop-opacity="0" />
		</linearGradient>
		<linearGradient id="V" x1="320.8" y1="339.9" x2="344.3" y2="358.1" gradientUnits="userSpaceOnUse">
			<stop stop-color="#965754" />
			<stop offset="1" stop-color="#965754" stop-opacity="0" />
		</linearGradient>
		<linearGradient id="ag" x1="210.6" y1="453.4" x2="262.3" y2="458.5" gradientUnits="userSpaceOnUse">
			<stop stop-color="#965754" />
			<stop offset="1" stop-color="#965754" stop-opacity="0" />
		</linearGradient>
		<linearGradient id="ah" x1="283.8" y1="460.6" x2="251.8" y2="409.2" gradientUnits="userSpaceOnUse">
			<stop stop-color="#985754" />
			<stop offset="1" stop-color="#985754" stop-opacity="0" />
		</linearGradient>
		<linearGradient id="ai" x1="320.8" y1="360.1" x2="391.6" y2="422.8" gradientUnits="userSpaceOnUse">
			<stop stop-color="#C56B6A" />
			<stop offset="1" stop-color="#C56B6A" stop-opacity="0" />
		</linearGradient>
		<linearGradient id="aj" x1="421.2" y1="379.7" x2="388.6" y2="396.7" gradientUnits="userSpaceOnUse">
			<stop stop-color="#C56B6A" />
			<stop offset="1" stop-color="#C56B6A" stop-opacity="0" />
		</linearGradient>
		<linearGradient id="ak" x1="333.4" y1="397.4" x2="383.7" y2="344.6" gradientUnits="userSpaceOnUse">
			<stop stop-color="#A04C4E" />
			<stop offset="1" stop-color="#A04C4E" stop-opacity="0" />
		</linearGradient>
		<linearGradient id="ao" x1="303.2" y1="375.7" x2="310.5" y2="402.2" gradientUnits="userSpaceOnUse">
			<stop stop-color="#A04C4E" />
			<stop offset="1" stop-color="#A04C4E" stop-opacity="0" />
		</linearGradient>
		<linearGradient id="aq" x1="353.5" y1="378.7" x2="369.5" y2="415.1" gradientUnits="userSpaceOnUse">
			<stop stop-color="#A04C4E" />
			<stop offset="1" stop-color="#A04C4E" stop-opacity="0" />
		</linearGradient>
	</defs>
</svg>
