<svg xmlns="http://www.w3.org/2000/svg" width="933.333" height="933.333" preserveAspectRatio="xMidYMid meet" version="1.0" viewBox="0 0 700 700"><metadata>Created by potrace 1.11, written by Peter Selinger 2001-2013</metadata><g fill="#000" stroke="none"><path d="M1760 6704 c-358 -38 -614 -122 -846 -279 -178 -121 -301 -253 -432 -461 -45 -73 -112 -203 -112 -220 0 -3 -6 -20 -14 -37 -81 -177 -213 -665 -185 -683 5 -3 192 -5 417 -4 224 1 428 2 454 2 26 0 51 5 56 11 5 7 17 44 26 82 9 39 20 77 23 85 3 8 7 20 8 25 7 29 62 159 98 230 80 157 183 258 331 325 120 55 218 72 416 74 288 4 513 -81 695 -260 39 -38 83 -85 99 -104 50 -61 122 -228 140 -325 3 -16 8 -43 11 -60 7 -37 8 -282 2 -292 -3 -5 -8 -32 -11 -61 -7 -59 -45 -181 -77 -245 -70 -138 -216 -278 -349 -335 -81 -34 -235 -67 -365 -78 -44 -4 -93 -8 -110 -10 -16 -1 -78 -4 -137 -5 -99 -2 -107 -4 -110 -23 -3 -19 -2 -276 1 -636 1 -69 5 -130 9 -136 4 -7 64 -14 156 -18 82 -4 152 -8 155 -10 3 -2 33 -7 66 -10 137 -15 299 -64 404 -122 305 -167 461 -472 463 -901 2 -314 -108 -591 -315 -795 -136 -135 -293 -220 -482 -263 -116 -27 -401 -27 -515 -1 -14 3 -38 8 -53 10 -37 6 -92 24 -142 46 -22 10 -57 25 -79 34 -65 27 -171 103 -241 173 -139 140 -245 346 -286 553 -7 36 -16 69 -20 74 -4 4 -210 10 -458 13 l-452 5 5 -28 c2 -16 7 -55 11 -87 5 -52 25 -173 40 -252 19 -101 93 -320 145 -430 103 -220 303 -466 495 -609 294 -219 627 -340 1020 -372 174 -14 460 -8 600 12 178 26 234 39 385 90 410 138 754 402 983 755 112 173 211 417 243 599 2 14 9 48 14 75 19 101 24 174 24 365 0 198 -4 250 -30 398 -37 213 -127 443 -241 617 -18 27 -33 53 -33 57 0 5 246 8 548 8 l547 0 2 -1486 c1 -818 5 -1489 8 -1492 3 -3 29 -7 58 -8 94 -5 728 -6 733 -2 2 3 6 1271 8 2819 2 1548 4 2814 5 2815 0 0 140 0 311 0 l310 -1 1 -200 c1 -110 3 -1372 4 -2805 2 -1433 4 -2610 4 -2616 1 -7 125 -11 401 -13 l400 -2 0 3220 0 3221 -1475 0 -1475 0 0 -395 c1 -300 4 -397 13 -401 7 -2 165 -5 352 -7 l340 -2 0 -917 c0 -619 -3 -918 -10 -919 -26 -3 -1121 -5 -1127 -2 -4 2 4 20 18 41 40 58 119 228 153 327 30 90 53 196 68 317 10 82 10 414 0 498 -13 101 -48 252 -74 320 -4 8 -7 17 -7 20 -22 89 -172 356 -256 455 -237 277 -473 440 -800 553 -122 42 -190 59 -335 82 -163 26 -451 32 -625 14z" transform="translate(0.000000,700.000000) scale(0.100000,-0.100000)"/></g></svg>