<?xml version="1.0" standalone="no"?>
<!DOCTYPE svg PUBLIC "-//W3C//DTD SVG 20010904//EN"
 "http://www.w3.org/TR/2001/REC-SVG-20010904/DTD/svg10.dtd">
<svg version="1.0" xmlns="http://www.w3.org/2000/svg"
 width="700.000000pt" height="700.000000pt" viewBox="0 0 700.000000 700.000000"
 preserveAspectRatio="xMidYMid meet">
<metadata>
Created by potrace 1.14, written by Peter Selinger 2001-2017
</metadata>
<g transform="translate(0.000000,700.000000) scale(0.100000,-0.100000)"
fill="#000000" stroke="none">
<path d="M1977 6714 c-1 -1 -58 -4 -126 -8 -139 -7 -301 -28 -396 -51 -227
-53 -459 -157 -595 -264 -101 -81 -228 -215 -318 -336 -114 -153 -236 -439
-321 -750 -38 -138 -60 -260 -51 -274 5 -8 135 -11 462 -9 251 2 459 6 462 9
3 3 17 48 30 100 25 99 114 315 158 384 91 144 274 276 438 316 58 14 408 20
485 8 191 -30 340 -109 501 -266 93 -91 143 -164 183 -268 13 -33 27 -69 32
-80 29 -67 40 -275 24 -422 -10 -88 -81 -289 -127 -361 -48 -75 -173 -194
-253 -241 -51 -31 -139 -60 -230 -76 -16 -3 -75 -13 -130 -23 -62 -12 -158
-20 -250 -21 -82 -1 -153 -5 -158 -8 -10 -6 -4 -780 6 -789 3 -4 39 -8 79 -10
240 -12 343 -27 488 -70 452 -136 675 -472 665 -1004 -3 -140 -7 -173 -40
-310 -10 -43 -42 -124 -76 -194 -145 -294 -436 -508 -736 -543 -115 -14 -338
-8 -473 11 -44 7 -224 72 -278 102 -258 140 -408 356 -507 726 -15 55 -17 58
-48 59 -18 1 -61 3 -97 5 -36 2 -226 7 -424 10 l-358 7 5 -54 c38 -376 117
-636 272 -891 124 -203 320 -409 497 -522 144 -91 431 -220 536 -241 9 -1 44
-10 77 -19 33 -8 76 -18 95 -21 50 -8 82 -14 108 -19 87 -18 420 -24 568 -11
29 2 83 7 120 10 295 26 634 147 889 318 303 203 544 503 679 843 36 92 81
248 91 319 3 22 9 65 14 95 14 90 11 533 -5 635 -38 248 -131 507 -250 693
-19 28 -33 52 -31 53 11 3 1087 11 1088 8 0 -2 2 -670 5 -1484 3 -814 7 -1485
9 -1492 3 -9 104 -12 399 -13 l396 -1 1 128 c0 70 2 355 4 633 2 278 5 1490 6
2694 l2 2189 304 -6 c167 -2 306 -6 307 -8 2 -2 6 -1265 8 -2807 3 -1541 8
-2805 11 -2808 3 -3 184 -8 401 -11 l396 -6 0 3222 0 3221 -1476 0 -1477 0 5
-395 c3 -218 7 -397 9 -399 2 -2 157 -6 344 -9 187 -3 342 -6 344 -6 3 -1 -5
-1816 -8 -1828 -1 -2 -253 -3 -561 -3 l-561 0 35 68 c111 212 153 325 186 504
20 104 21 137 17 403 -4 271 -6 296 -30 385 -32 119 -56 186 -96 273 -83 177
-211 356 -353 492 -122 118 -141 133 -245 203 -308 206 -625 297 -1061 305
-52 1 -94 1 -95 1z"/>
</g>
</svg>
